<svg width="12" height="22" viewBox="0 0 12 22" fill="none" xmlns="http://www.w3.org/2000/svg">
<path d="M7.4002 5.16332C7.6102 5.16332 7.7802 4.99332 7.7802 4.78332C7.7802 4.57332 7.6102 4.40332 7.4002 4.40332C7.1902 4.40332 7.0202 4.57332 7.0202 4.78332C7.0202 4.99332 7.1902 5.16332 7.4002 5.16332Z" fill="#07513A"/>
<path d="M4.7102 4.78332C4.7102 4.57332 4.5402 4.40332 4.3302 4.40332C4.1202 4.40332 3.9502 4.57332 3.9502 4.78332C3.9502 4.99332 4.1202 5.16332 4.3302 5.16332C4.5402 5.16332 4.7102 4.99332 4.7102 4.78332Z" fill="#07513A"/>
<path d="M7.40025 7.08332C7.40025 6.24332 6.71025 5.54332 5.86025 5.54332C5.02025 5.54332 4.32025 6.23332 4.32025 7.08332C4.32025 7.92332 5.01025 8.62332 5.86025 8.62332C6.71025 8.62332 7.40025 7.93332 7.40025 7.08332ZM5.86025 7.85332C5.43025 7.85332 5.09025 7.51332 5.09025 7.08332C5.09025 6.65332 5.43025 6.31332 5.86025 6.31332C6.29025 6.31332 6.63025 6.65332 6.63025 7.08332C6.63025 7.51332 6.29025 7.85332 5.86025 7.85332Z" fill="#07513A"/>
<path d="M5.86022 0.943314C2.89022 0.943314 0.480225 3.35331 0.480225 6.32331V16.3133C0.480225 19.2833 2.89022 21.6933 5.86022 21.6933C8.83022 21.6933 11.2402 19.2833 11.2402 16.3133V6.32331C11.2402 3.34331 8.84023 0.943314 5.86022 0.943314ZM10.4702 16.3033C10.4702 18.8033 8.52022 20.8033 6.05022 20.9033C5.01022 19.4633 4.41022 17.8633 4.37022 16.3433C4.32023 14.7633 4.85023 13.2533 6.12023 11.9833C6.13023 11.9733 7.09022 11.1533 8.07022 10.0633C9.05022 8.96331 10.0902 7.61331 10.0902 6.32331C10.0902 3.99331 8.19022 2.09331 5.86022 2.09331C3.53022 2.09331 1.64023 3.99331 1.64023 6.32331C1.64023 7.61331 2.67022 8.96331 3.66022 10.0633C4.41022 10.9033 5.01022 11.4533 5.33022 11.7333C4.11022 13.0933 3.57023 14.7233 3.62022 16.3733C3.66022 17.9033 4.20023 19.4433 5.10023 20.8533C2.91023 20.4833 1.27023 18.6033 1.27023 16.3133V6.32331C1.27023 3.76331 3.32023 1.71331 5.88023 1.71331C8.44023 1.71331 10.4902 3.76331 10.4902 6.32331V16.3033H10.4702ZM5.86022 11.1533C5.66022 10.9733 5.04022 10.4633 4.23022 9.54331C3.29022 8.48331 2.41022 7.14331 2.41022 6.31331C2.41022 4.40331 3.95022 2.85331 5.87022 2.85331C7.79023 2.85331 9.33022 4.39331 9.33022 6.31331C9.33022 7.14331 8.45023 8.48331 7.51023 9.54331C6.68023 10.4633 6.07022 10.9833 5.86022 11.1533Z" fill="#07513A"/>
<path d="M5.86022 6.70331C5.65022 6.70331 5.48022 6.87331 5.48022 7.08331C5.48022 7.29331 5.65022 7.46331 5.86022 7.46331C6.07022 7.46331 6.24022 7.29331 6.24022 7.08331C6.25022 6.87331 6.08022 6.70331 5.86022 6.70331Z" fill="#07513A"/>
</svg>
