<svg width="23" height="23" viewBox="0 0 23 23" fill="none" xmlns="http://www.w3.org/2000/svg">
<g clip-path="url(#clip0_46_536)">
<path d="M17.2269 14.5214L16.9259 14.2144C15.9532 13.2242 14.5715 13.2088 13.5757 14.1607C13.1511 14.5675 12.7189 14.982 12.2943 15.3965C12.2634 15.3812 12.2403 15.3658 12.2094 15.3581C12.0318 15.266 11.862 15.1816 11.6999 15.0818C10.4494 14.2681 9.29921 13.1935 8.18764 11.7887C7.71676 11.19 7.36939 10.6526 7.12237 10.1153C7.50062 9.76219 7.86342 9.40141 8.23395 9.04063L8.39606 8.88711C9.43816 7.87385 9.46132 6.54587 8.45009 5.5019L6.89851 3.89758C6.62834 3.61356 6.35816 3.33721 6.08027 3.05319C5.0922 2.06296 3.74904 2.03993 2.73781 3.00714C2.52939 3.19904 2.32869 3.39862 2.12799 3.5982C1.82693 3.8899 1.52588 4.18159 1.21711 4.46561C0.584126 5.04901 0.221319 5.77824 0.136407 6.66101C0.0128982 7.98132 0.360267 9.15577 0.676758 10.0309C1.37149 12.0036 2.45992 13.869 3.98834 15.7343C5.895 18.0678 8.20307 19.9255 10.8585 21.2611C12.3406 22.0057 13.6066 22.3895 14.8648 22.4817C14.9806 22.4893 15.1041 22.497 15.2199 22.497C16.3006 22.497 17.1961 22.1209 17.8908 21.3686C18.1687 21.0692 18.4697 20.7929 18.7708 20.5089C18.9329 20.3554 19.1027 20.2018 19.2648 20.0406C20.2915 19.0427 20.3147 17.6917 19.3266 16.6708C18.6318 15.9569 17.9371 15.243 17.2347 14.5291L17.2269 14.5214ZM18.0683 18.8278C17.9139 18.9736 17.7596 19.1195 17.6052 19.273C17.2732 19.5801 16.949 19.8871 16.6403 20.2172C16.2234 20.6624 15.714 20.839 14.9806 20.7929C13.9462 20.7161 12.9118 20.4014 11.6227 19.7489C9.18342 18.5207 7.06062 16.8089 5.30834 14.6673C3.90342 12.9555 2.91535 11.2514 2.28237 9.46282C1.90413 8.40351 1.76518 7.58215 1.83465 6.81453C1.88097 6.35396 2.04307 6.00853 2.36728 5.72451C2.69149 5.42514 3.00799 5.12577 3.31676 4.81872C3.51746 4.62681 3.71044 4.43491 3.91114 4.243C4.07325 4.0818 4.23535 4.00504 4.38974 4.00504C4.54413 4.00504 4.71395 4.08948 4.87606 4.25836C5.14623 4.52702 5.41641 4.80337 5.67886 5.07971L7.23044 6.67636C7.58553 7.04482 7.58553 7.32884 7.215 7.68194L7.0529 7.83547C6.60518 8.26533 6.16518 8.70288 5.70202 9.13275C5.32377 9.49353 5.22342 9.96178 5.42413 10.4454C5.74062 11.236 6.19606 11.9883 6.85992 12.825C8.08728 14.3756 9.36869 15.5731 10.7813 16.4865C10.9897 16.617 11.2136 16.7322 11.4375 16.8473C11.561 16.9087 11.6845 16.9701 11.7925 17.0316C12.2866 17.3156 12.8269 17.2388 13.2361 16.832C13.7378 16.3407 14.2473 15.8571 14.7568 15.3658C15.0964 15.0434 15.3897 15.0511 15.7139 15.3812L16.015 15.6882C16.7097 16.4021 17.4045 17.1083 18.0992 17.8222C18.4389 18.1753 18.4311 18.467 18.0761 18.8124L18.0683 18.8278Z" fill="white"/>
<path d="M14.6333 8.00419C15.5288 8.92533 16.1 10.0768 16.3007 11.328C16.3625 11.7425 16.7253 12.0419 17.1421 12.0419C17.1884 12.0419 17.227 12.0419 17.2733 12.0342C17.7365 11.9651 18.053 11.5276 17.9835 11.067C17.7365 9.47035 17.0032 8.00419 15.8607 6.82973C14.6642 5.60154 13.1281 4.80321 11.4298 4.54222C10.9589 4.47314 10.5344 4.78786 10.4572 5.24843C10.3877 5.70901 10.7042 6.13887 11.1674 6.21564C12.4951 6.42289 13.6993 7.04467 14.6411 8.01187L14.6333 8.00419Z" fill="white"/>
<path d="M18.7322 4.13533C16.8256 2.1779 14.394 0.919004 11.7 0.496812C11.2291 0.427727 10.8045 0.742451 10.7273 1.20302C10.6579 1.6636 10.9744 2.09346 11.4375 2.17023C13.7687 2.53101 15.8684 3.61335 17.5126 5.30979C19.0719 6.9218 20.0831 8.93296 20.4305 11.1284C20.4922 11.5429 20.8551 11.8422 21.2719 11.8422C21.3182 11.8422 21.3568 11.8422 21.4031 11.8346C21.8663 11.7655 22.1828 11.3279 22.1133 10.8674C21.7119 8.32654 20.5463 5.99297 18.74 4.13533H18.7322Z" fill="white"/>
</g>
<defs>
<clipPath id="clip0_46_536">
<rect width="22" height="22" fill="white" transform="translate(0.113281 0.489258)"/>
</clipPath>
</defs>
</svg>
