<svg width="17" height="15" viewBox="0 0 17 15" fill="none" xmlns="http://www.w3.org/2000/svg">
<path d="M15.8284 2.88359H4.81654L4.67912 1.9199C4.56045 1.06479 3.89211 0.44043 3.09886 0.44043H1.28749C0.937711 0.44043 0.650391 0.752611 0.650391 1.13266C0.650391 1.51271 0.937711 1.82489 1.28749 1.82489H3.08637C3.23627 1.82489 3.37369 1.95383 3.40492 2.11671L4.84777 12.5137C4.99767 13.5724 5.80342 14.3189 6.77781 14.3189H13.711C14.0608 14.3189 14.3481 14.0068 14.3481 13.6267C14.3481 13.2467 14.0608 12.9345 13.711 12.9345H6.7903C6.45301 12.9345 6.17194 12.663 6.11573 12.2966L5.96582 11.2582H14.5105C14.8103 11.2582 15.0789 11.0207 15.1288 10.7085L16.4405 3.71834C16.4718 3.51474 16.4218 3.29757 16.3031 3.1347C16.1844 2.97182 16.0033 2.87681 15.8159 2.87681L15.8284 2.88359ZM5.78468 9.88733L4.99767 4.26805H7.50236L7.77094 9.88733H5.79093H5.78468ZM11.0252 9.88733H9.02641L8.75782 4.26805H11.2937L11.0252 9.88733ZM13.9983 9.88733H12.2994L12.5679 4.26805H15.0352L13.9921 9.88733H13.9983Z" fill="#44BC9D"/>
</svg>
