<svg width="21" height="21" viewBox="0 0 21 21" fill="none" xmlns="http://www.w3.org/2000/svg">
<path d="M20.1069 2.84322H18.7453V1.36375C18.7453 1.03799 18.5017 0.773315 18.2019 0.773315C17.9021 0.773315 17.6585 1.03799 17.6585 1.36375V2.84322H16.2968C15.997 2.84322 15.7534 3.10789 15.7534 3.43365C15.7534 3.7594 15.997 4.02408 16.2968 4.02408H17.6585V5.50355C17.6585 5.8293 17.9021 6.09398 18.2019 6.09398C18.5017 6.09398 18.7453 5.8293 18.7453 5.50355V4.02408H20.1069C20.4068 4.02408 20.6504 3.7594 20.6504 3.43365C20.6504 3.10789 20.4068 2.84322 20.1069 2.84322Z" fill="#44BC9D"/>
<path d="M6.69644 20.7734C7.33807 20.7734 7.85822 20.2082 7.85822 19.5111C7.85822 18.8139 7.33807 18.2488 6.69644 18.2488C6.05481 18.2488 5.53467 18.8139 5.53467 19.5111C5.53467 20.2082 6.05481 20.7734 6.69644 20.7734Z" fill="#44BC9D"/>
<path d="M12.9738 20.7734C13.6154 20.7734 14.1356 20.2082 14.1356 19.5111C14.1356 18.8139 13.6154 18.2488 12.9738 18.2488C12.3322 18.2488 11.812 18.8139 11.812 19.5111C11.812 20.2082 12.3322 20.7734 12.9738 20.7734Z" fill="#44BC9D"/>
<path d="M15.8284 5.88359H4.81654L4.67912 4.9199C4.56045 4.06479 3.89211 3.44043 3.09886 3.44043H1.28749C0.937711 3.44043 0.650391 3.75261 0.650391 4.13266C0.650391 4.51271 0.937711 4.82489 1.28749 4.82489H3.08637C3.23627 4.82489 3.37369 4.95383 3.40492 5.11671L4.84777 15.5137C4.99767 16.5724 5.80342 17.3189 6.77781 17.3189H13.711C14.0608 17.3189 14.3481 17.0068 14.3481 16.6267C14.3481 16.2467 14.0608 15.9345 13.711 15.9345H6.7903C6.45301 15.9345 6.17194 15.663 6.11573 15.2966L5.96582 14.2582H14.5105C14.8103 14.2582 15.0789 14.0207 15.1288 13.7085L16.4405 6.71834C16.4718 6.51474 16.4218 6.29757 16.3031 6.1347C16.1844 5.97182 16.0033 5.87681 15.8159 5.87681L15.8284 5.88359ZM5.78468 12.8873L4.99767 7.26805H7.50236L7.77094 12.8873H5.79093H5.78468ZM11.0252 12.8873H9.02641L8.75782 7.26805H11.2937L11.0252 12.8873ZM13.9983 12.8873H12.2994L12.5679 7.26805H15.0352L13.9921 12.8873H13.9983Z" fill="#44BC9D"/>
</svg>
