<svg width="21" height="21" viewBox="0 0 21 21" fill="none" xmlns="http://www.w3.org/2000/svg">
<path d="M20.462 5.59695H16.3792L20.7723 1.17975C20.8475 1.09055 20.8857 0.975899 20.879 0.859382C20.875 0.801279 20.8592 0.744609 20.8325 0.692854C20.8058 0.6411 20.7688 0.595355 20.7238 0.55843C20.6437 0.489086 20.5413 0.450928 20.4353 0.450928C20.3294 0.450928 20.227 0.489086 20.1468 0.55843L17.7224 2.98546H1.3572C1.29949 2.98482 1.24222 2.99565 1.18871 3.01731C1.1352 3.03898 1.08652 3.07106 1.04548 3.11169C1.00444 3.15232 0.97186 3.2007 0.949626 3.25402C0.927392 3.30734 0.915945 3.36455 0.915949 3.42233V13.3635C0.915949 13.4806 0.962438 13.593 1.04519 13.6758C1.12794 13.7586 1.24017 13.8052 1.3572 13.8052H6.90923L1.05172 19.6737C0.962984 19.7503 0.90828 19.8591 0.899641 19.9761C0.891002 20.093 0.929136 20.2087 1.00565 20.2975C1.08217 20.3863 1.19081 20.4411 1.30766 20.4497C1.42451 20.4584 1.54001 20.4202 1.62874 20.3436L1.68693 20.2999L4.1114 17.8729H19.3564C19.4735 17.8729 19.5857 17.8263 19.6685 17.7435C19.7512 17.6607 19.7977 17.5483 19.7977 17.4312V9.40254H20.462C20.5197 9.40254 20.5769 9.39108 20.6301 9.36882C20.6834 9.34657 20.7317 9.31395 20.7723 9.27287C20.8129 9.23179 20.8449 9.18305 20.8666 9.12949C20.8882 9.07592 20.8991 9.01859 20.8984 8.96082V6.01925C20.8946 5.90593 20.847 5.79852 20.7656 5.71971C20.6841 5.64091 20.5753 5.59689 20.462 5.59695ZM20.0208 6.48039V8.50939H13.4407L15.4967 6.45126L20.0208 6.48039ZM11.1714 9.5433L10.6138 10.1015V9.04333C10.7429 9.06922 10.8627 9.12925 10.9608 9.21717C11.0588 9.3051 11.1316 9.41771 11.1714 9.5433ZM10.6138 6.47068C10.7799 6.50414 10.9293 6.59384 11.0371 6.72468C11.1448 6.85552 11.2043 7.01952 11.2054 7.18908C11.2168 7.29763 11.268 7.3981 11.349 7.47113C11.43 7.54415 11.5352 7.58456 11.6442 7.58456C11.7532 7.58456 11.8584 7.54415 11.9394 7.47113C12.0205 7.3981 12.0716 7.29763 12.083 7.18908C12.0826 6.78842 11.9335 6.4022 11.6648 6.10533C11.396 5.80845 11.0266 5.62209 10.6284 5.58239V5.28144C10.617 5.17289 10.5658 5.07242 10.4848 4.99939C10.4037 4.92637 10.2986 4.88596 10.1895 4.88596C10.0805 4.88596 9.97534 4.92637 9.89431 4.99939C9.81328 5.07242 9.76212 5.17289 9.75071 5.28144V5.59695C9.35202 5.6356 8.98205 5.82164 8.71305 6.11875C8.44406 6.41585 8.29537 6.80267 8.29603 7.20364V7.42208C8.29284 7.82525 8.44027 8.21506 8.70941 8.51501C8.97854 8.81496 9.34993 9.00339 9.75071 9.04333V10.7277C9.58424 10.6951 9.43424 10.6056 9.32635 10.4746C9.21845 10.3436 9.15935 10.1791 9.15914 10.0093C9.14772 9.90075 9.09657 9.80028 9.01554 9.72725C8.93451 9.65422 8.82934 9.61382 8.72031 9.61382C8.61128 9.61382 8.50611 9.65422 8.42508 9.72725C8.34405 9.80028 8.2929 9.90075 8.28148 10.0093C8.27603 10.3275 8.36535 10.64 8.53807 10.9072C8.71079 11.1743 8.95908 11.3839 9.25127 11.5092L7.79659 12.9654H1.79845V3.88346H16.8302L11.8261 8.89286C11.6943 8.68485 11.5163 8.51008 11.3061 8.38211C11.0958 8.25415 10.8589 8.17644 10.6138 8.15504V6.47068ZM9.15914 7.20364C9.15621 7.03362 9.21204 6.8678 9.31719 6.73424C9.42233 6.60068 9.57034 6.50757 9.73616 6.47068V8.14048C9.56969 8.10787 9.4197 8.01841 9.3118 7.88738C9.20391 7.75635 9.1448 7.59188 9.14459 7.42208L9.15914 7.20364ZM18.9346 9.40254V16.9797H4.98905L12.5582 9.40254H18.9346Z" fill="black"/>
</svg>
