<svg width="21" height="18" viewBox="0 0 21 18" fill="none" xmlns="http://www.w3.org/2000/svg">
<path d="M18.7268 6.95289H16.8299V2.26526C16.8299 1.32585 16.0044 0.561096 14.9842 0.561096H2.08494C1.06469 0.561096 0.239258 1.32585 0.239258 2.26526V13.9773C0.239258 14.1519 0.352049 14.3124 0.526364 14.388C0.700678 14.4635 0.905754 14.4352 1.04931 14.3172L4.0229 11.9238H7.56558V14.2983C7.56558 15.063 8.24233 15.6861 9.07289 15.6861H17.2298L19.4292 17.4517C19.5728 17.565 19.7778 17.5933 19.9522 17.5225C20.1265 17.447 20.2393 17.2912 20.2393 17.1118V8.33133C20.2341 7.56658 19.5574 6.94817 18.7268 6.95289ZM3.83834 11.0221C3.72042 11.0221 3.60762 11.0599 3.51534 11.1307L1.21337 12.9859V2.26526C1.21337 1.82152 1.60301 1.46275 2.08494 1.46275H14.9893C15.4661 1.46747 15.8558 1.82152 15.8558 2.26526V10.2196C15.8558 10.6586 15.4661 11.0174 14.9842 11.0221H3.83834ZM19.2549 16.1157L17.7373 14.8931C17.6502 14.8223 17.5374 14.7798 17.4143 14.7798H9.07289C8.78066 14.7798 8.54482 14.5626 8.54482 14.2935V11.919H14.9893C16.0096 11.9143 16.835 11.1543 16.835 10.2196V7.85454H18.7268C19.0191 7.85454 19.2549 8.07169 19.2549 8.34077V16.1157ZM13.5333 4.10633C13.5333 4.22434 13.482 4.33764 13.3897 4.42261C13.2974 4.50758 13.1744 4.55479 13.0462 4.55479H3.97676C3.70504 4.55479 3.48971 4.3518 3.48971 4.10633C3.48971 3.85613 3.71016 3.65786 3.97676 3.65786H13.0462C13.1744 3.65786 13.2974 3.70507 13.3897 3.79004C13.482 3.87501 13.5333 3.98831 13.5333 4.10633ZM13.5333 6.35809C13.5333 6.4761 13.482 6.5894 13.3897 6.67437C13.2974 6.75935 13.1744 6.80655 13.0462 6.80655H3.97676C3.70504 6.80655 3.48971 6.60356 3.48971 6.35809C3.48971 6.11261 3.71016 5.90962 3.97676 5.90962H13.0462C13.1744 5.90962 13.2974 5.95683 13.3897 6.0418C13.482 6.12205 13.5333 6.24007 13.5333 6.35809ZM8.64736 8.60985C8.64736 8.72787 8.59609 8.84116 8.50381 8.92614C8.41152 9.01111 8.28848 9.05832 8.1603 9.05832H3.97676C3.70504 9.05832 3.48971 8.85533 3.48971 8.60985C3.48971 8.35965 3.71016 8.16139 3.97676 8.16139H8.1603C8.28848 8.16139 8.41152 8.20859 8.50381 8.29357C8.59609 8.37382 8.64736 8.48711 8.64736 8.60985Z" fill="#414042"/>
</svg>
