<svg width="12" height="22" viewBox="0 0 12 22" fill="none" xmlns="http://www.w3.org/2000/svg">
<path d="M11.1102 0.593323H1.71022C1.58022 0.593323 1.46022 0.673323 1.40022 0.783323L0.59022 2.32332C0.52022 2.43332 0.52022 2.57332 0.59022 2.68332C0.66022 2.79332 0.770219 2.85332 0.900219 2.85332H3.08022V4.46332H1.60022C1.40022 4.46332 1.24022 4.62332 1.24022 4.82332V6.32332C1.24022 6.52332 1.40022 6.68332 1.60022 6.68332H1.87022V9.44332C1.87022 9.99332 1.73022 10.5333 1.47022 11.0133L1.13022 11.6333C0.81022 12.2233 0.64022 12.8833 0.64022 13.5433V19.6133C0.64022 20.0633 0.82022 20.4933 1.14022 20.8033C1.46022 21.1233 1.88022 21.2933 2.33022 21.2933H8.15022C9.07022 21.2833 9.83022 20.5333 9.83022 19.6033V14.6633C9.84022 13.7733 9.45022 12.9233 8.77022 12.3433L7.05022 10.8733C6.53022 10.4333 6.23022 9.79332 6.23022 9.11332V6.66332H6.56022C6.76022 6.66332 6.92022 6.50332 6.92022 6.30332V4.80332C6.92022 4.60332 6.76022 4.44332 6.56022 4.44332H5.10022V2.66332H8.56022C8.44022 3.49332 8.39022 5.28332 9.83022 6.37332C9.89022 6.41332 9.95022 6.44332 10.0302 6.44332H10.0602C10.1702 6.44332 10.2802 6.39332 10.3402 6.30332C10.4002 6.22332 10.4302 6.13332 10.4102 6.03332C10.4002 5.93332 10.3502 5.85332 10.2702 5.79332C9.09022 4.89332 9.19022 3.31332 9.29022 2.65332H10.2702C10.4002 2.65332 10.5202 2.58332 10.5802 2.48332L11.3902 1.14332C11.4302 1.08332 11.4402 1.02332 11.4402 0.953322C11.4702 0.763322 11.3102 0.593323 11.1102 0.593323ZM4.75022 1.94332C4.55022 1.94332 4.39022 2.10332 4.39022 2.30332V4.48332H3.79022V2.51332C3.79022 2.31332 3.63022 2.15332 3.43022 2.15332H1.49022L1.92022 1.32332H10.4702L10.0902 1.95332H4.75022V1.94332ZM6.22022 5.20332V5.98332H5.89022H2.24022H1.97022V5.20332H3.44022H4.76022H6.22022ZM6.59022 11.4633L8.31022 12.9333C8.83022 13.3733 9.13022 14.0133 9.12022 14.6933V19.6433C9.12022 20.1733 8.69022 20.6133 8.15022 20.6133H2.33022C1.80022 20.6133 1.36022 20.1833 1.36022 19.6433V13.5733C1.36022 13.0233 1.50022 12.4833 1.76022 12.0033L2.10022 11.3833C2.42022 10.7933 2.59022 10.1333 2.59022 9.47332V6.71332H3.75022C3.84022 7.89332 4.10022 12.0733 3.59022 15.9833H2.30022C2.10022 15.9833 1.94022 16.1433 1.94022 16.3433V19.2633C1.94022 19.6333 2.24022 19.9233 2.60022 19.9233H7.83022C8.20022 19.9233 8.49022 19.6233 8.49022 19.2633V16.3433C8.49022 16.1433 8.33022 15.9833 8.13022 15.9833H4.31022C4.79022 12.2833 4.58022 8.32332 4.47022 6.71332H5.51022V9.15332C5.52022 10.0433 5.91022 10.8833 6.59022 11.4633ZM3.32022 17.6533C3.28022 17.8433 3.41022 18.0333 3.63022 18.0833H3.67022C3.84022 18.0833 3.98022 17.9633 4.02022 17.8033C4.09022 17.4433 4.16022 17.0733 4.21022 16.7033H7.77022V19.2133H2.65022V16.7033H3.48022C3.44022 17.0133 3.38022 17.3333 3.32022 17.6533Z" fill="#07513A"/>
</svg>
