<svg width="19" height="19" viewBox="0 0 19 19" fill="none" xmlns="http://www.w3.org/2000/svg">
<path d="M18.6705 13.8033C18.4805 13.4933 18.1505 13.3333 17.7205 13.3333H15.9705C17.4405 11.9833 18.3105 10.0733 18.3105 8.04332C18.3105 4.09332 15.1005 0.903316 11.1705 0.903316C9.23048 0.903316 7.41048 1.68332 6.09048 3.03332V1.44332C6.09048 1.23332 5.92048 1.01332 5.71048 0.973315L1.77048 0.143316C1.63048 0.123316 1.49048 0.143316 1.37048 0.233316C1.25048 0.333316 1.21048 0.473316 1.21048 0.623316V4.07332C1.07048 4.14332 0.950479 4.31331 0.950479 4.50331V5.87332H0.710479C0.450479 5.87332 0.240479 6.08331 0.240479 6.34332V14.5433C0.240479 16.8133 1.78048 18.6533 3.67048 18.6533C4.64048 18.6533 5.51048 18.1533 6.13048 17.3733H16.1005C16.7905 17.3733 17.5905 16.9033 17.9005 16.2833L18.6605 14.8633C18.8405 14.4933 18.8605 14.1133 18.6705 13.8033ZM2.15048 1.21332L5.15048 1.85332V4.02332H2.15048V1.21332ZM1.92048 4.97332H5.42048V5.87332H1.92048V4.97332ZM6.10048 12.9133V13.8133V14.5233C6.10048 15.3233 5.86048 16.0833 5.46048 16.6233C5.01048 17.2633 4.35048 17.6833 3.62048 17.6833C2.25048 17.6833 1.14048 16.2633 1.14048 14.5133V6.80332H1.19048H1.24048C1.31048 6.82332 1.36048 6.85332 1.43048 6.85332H5.87048C5.94048 6.85332 6.01048 6.83332 6.06048 6.80332H6.11048V12.9133H6.10048ZM6.34048 5.89332V4.50331C6.34048 4.43331 6.32048 4.36332 6.29048 4.29332C7.47048 2.77332 9.27048 1.87332 11.1805 1.87332C14.6105 1.87332 17.3705 4.66332 17.3705 8.06332C17.3705 10.2133 16.2405 12.2233 14.3905 13.3533H7.96048C7.65048 13.1633 7.35048 12.9233 7.06048 12.6933V10.6633C7.93048 12.0333 9.45048 12.9533 11.1705 12.9533C13.8605 12.9533 16.0405 10.7833 16.0405 8.08332C16.0405 5.39332 13.8705 3.21332 11.1705 3.21332C9.26048 3.21332 7.60048 4.32332 6.80048 5.93332C6.73048 5.91332 6.66048 5.88332 6.59048 5.88332H6.34048V5.89332ZM7.26048 8.06332C7.26048 5.89332 9.03048 4.14332 11.1805 4.14332C13.3505 4.14332 15.1005 5.91332 15.1005 8.06332C15.1005 10.2333 13.3305 11.9833 11.1805 11.9833C9.03048 12.0133 7.26048 10.2433 7.26048 8.06332ZM17.8005 14.4433L17.0405 15.8633C16.8705 16.1733 16.4305 16.4533 16.0705 16.4533H6.69048C6.93048 15.8833 7.09048 15.2433 7.09048 14.5433V14.3033H17.7305C17.8005 14.3033 17.8505 14.3233 17.8505 14.3233C17.8505 14.3533 17.8505 14.4033 17.8005 14.4433Z" fill="#07513A"/>
</svg>
