<svg width="17" height="16" viewBox="0 0 17 16" fill="none" xmlns="http://www.w3.org/2000/svg">
<path d="M13.8074 2.34307C10.6849 -0.779394 5.61981 -0.779394 2.49318 2.34307C-0.154028 4.99028 -0.6126 9.12159 1.39261 12.2857L0.688077 15.0872C0.617207 15.3665 0.788129 15.6542 1.06744 15.725C1.15082 15.7459 1.23836 15.7459 1.32174 15.725L4.26077 14.9955C8.12528 17.1383 12.9945 15.7459 15.1373 11.8855C16.8757 8.76307 16.3296 4.86938 13.8074 2.34307ZM13.0654 12.9152C10.8225 15.1622 7.34154 15.6 4.61095 13.9825C4.49423 13.9116 4.35249 13.8907 4.21908 13.9241L1.92205 14.4911L2.46817 12.3149C2.50569 12.169 2.47651 12.0148 2.39313 11.8939C0.242012 8.71305 1.07578 4.39413 4.2566 2.24301C7.43743 0.091893 11.7563 0.92566 13.9075 4.10648C15.7751 6.86625 15.4207 10.5598 13.0654 12.9152ZM8.67557 6.69116V11.4061C8.67557 12.0815 7.62502 12.0815 7.62502 11.4061V6.69116C7.62502 6.39934 7.85848 6.16589 8.1503 6.16589C8.44211 6.16589 8.67557 6.39934 8.67557 6.69116ZM8.67557 4.59424V5.11534C8.67557 5.79069 7.62502 5.79069 7.62502 5.11534V4.59424C7.62502 4.30242 7.85848 4.06896 8.1503 4.06896C8.44211 4.06896 8.67557 4.30242 8.67557 4.59424Z" fill="#9A9A9A"/>
</svg>
