<svg width="16" height="18" viewBox="0 0 16 18" fill="none" xmlns="http://www.w3.org/2000/svg">
<path d="M14.4803 7.59332C14.4603 7.21332 14.5003 6.83332 14.6103 6.32332V1.43332C14.6103 1.30332 14.5203 1.17332 14.3803 1.12332C14.2403 1.07332 14.1003 1.10332 14.0003 1.21332L13.9103 1.31332C13.6403 1.61332 13.5203 1.75332 13.2403 1.75332C12.9803 1.75332 12.8803 1.64332 12.6603 1.39332L12.6103 1.34332C12.3703 1.06332 12.0703 0.713318 11.4603 0.713318C10.8603 0.713318 10.5603 1.04332 10.3003 1.34332C10.1003 1.57332 9.92027 1.76332 9.65027 1.76332C9.38027 1.76332 9.20027 1.57332 9.01027 1.34332C8.75027 1.05332 8.46027 0.713318 7.86027 0.713318C7.26027 0.713318 6.97027 1.04332 6.72027 1.34332C6.53027 1.56332 6.36027 1.76332 6.09027 1.76332C5.81027 1.76332 5.70027 1.63332 5.46027 1.36332L5.45027 1.34332C5.21027 1.06332 4.91027 0.713318 4.28027 0.713318C3.68027 0.713318 3.39027 1.04332 3.13027 1.34332C2.93027 1.56332 2.76027 1.76332 2.49027 1.76332C2.21027 1.76332 2.09027 1.61332 1.90027 1.40332C1.85027 1.33332 1.80027 1.27332 1.75027 1.21332C1.68027 1.14332 1.57027 1.10332 1.46027 1.10332C1.34027 1.11332 1.23027 1.18332 1.17027 1.30332L1.16027 1.32332V1.36332C1.17027 1.46332 1.18027 2.26332 1.18027 6.53332L1.20027 6.59332C1.30027 6.94332 1.35027 7.30332 1.33027 7.69332L0.69027 11.1633V11.2133C0.67027 13.8033 2.71027 15.9433 4.73027 16.9033C5.84027 17.4433 6.82027 17.5133 7.52027 17.5133C7.67027 17.5133 7.80027 17.5133 7.92027 17.5033C8.09027 17.5033 8.23027 17.4933 8.35027 17.5033C11.7803 17.5033 15.0203 14.4433 15.0203 11.1933L14.4803 7.59332ZM2.03027 7.68332C2.77027 8.77332 3.46027 10.3333 3.93027 12.0233C4.30027 13.3133 4.51027 14.6433 4.54027 15.9933C2.25027 14.6733 1.41027 12.6133 1.40027 11.2533C1.74027 9.26332 1.90027 8.50332 1.97027 8.13332C2.02027 7.87332 2.03027 7.82332 2.03027 7.68332ZM12.1503 1.86332C12.3903 2.14332 12.6903 2.49332 13.3003 2.49332C13.5403 2.49332 13.7603 2.43332 13.9503 2.32332V3.61332L13.8903 3.68332C13.7003 3.91332 13.5803 4.05332 13.3003 4.05332C13.0203 4.05332 12.9103 3.92332 12.6603 3.64332C12.4203 3.37332 12.1003 2.99332 11.4903 2.99332C10.9003 2.99332 10.5803 3.34332 10.3503 3.59332L10.2703 3.68332C10.0603 3.91332 9.95027 4.03332 9.69027 4.03332C9.41027 4.03332 9.30027 3.90332 9.06027 3.63332L9.03027 3.59332C8.80027 3.32332 8.51027 2.99332 7.92027 2.99332C7.33027 2.99332 7.01027 3.34332 6.77027 3.60332L6.69027 3.69332C6.48027 3.91332 6.37027 4.04332 6.11027 4.04332C5.83027 4.04332 5.72027 3.91332 5.48027 3.64332L5.45027 3.60332C5.22027 3.33332 4.93027 3.00332 4.34027 3.00332C3.73027 3.00332 3.41027 3.37332 3.18027 3.64332C2.95027 3.91332 2.82027 4.04332 2.55027 4.04332C2.28027 4.04332 2.14027 3.90332 1.90027 3.62332V2.32332C2.10027 2.43332 2.33027 2.50332 2.55027 2.50332C3.15027 2.50332 3.44027 2.17332 3.70027 1.87332C3.90027 1.65332 4.07027 1.45332 4.34027 1.45332C4.61027 1.45332 4.78027 1.64332 4.98027 1.87332C5.24027 2.16332 5.54027 2.50332 6.13027 2.50332C6.73027 2.50332 7.04027 2.17332 7.29027 1.85332C7.51027 1.57332 7.64027 1.45332 7.92027 1.45332C8.19027 1.45332 8.36027 1.64332 8.55027 1.86332C8.81027 2.16332 9.10027 2.49332 9.73027 2.49332C10.3403 2.49332 10.6303 2.16332 10.8803 1.86332C11.0703 1.63332 11.2403 1.44332 11.5203 1.44332C11.7903 1.44332 11.9003 1.57332 12.1503 1.86332ZM3.65027 4.12332C3.88027 3.85332 4.01027 3.72332 4.26027 3.72332C4.53027 3.72332 4.71027 3.91332 4.90027 4.14332C5.16027 4.43332 5.45027 4.77332 6.05027 4.77332C6.66027 4.77332 6.98027 4.40332 7.21027 4.13332C7.47027 3.83332 7.66027 3.71332 7.90027 3.71332C8.16027 3.71332 8.28027 3.83332 8.53027 4.11332L8.54027 4.13332C8.78027 4.41332 9.08027 4.76332 9.71027 4.76332C10.3203 4.76332 10.6203 4.41332 10.8503 4.15332L10.8803 4.12332C11.1103 3.85332 11.2403 3.72332 11.5103 3.72332C11.7903 3.72332 11.9003 3.85332 12.1503 4.14332C12.3903 4.42332 12.6903 4.77332 13.3003 4.77332C13.5403 4.77332 13.7603 4.71332 13.9503 4.60332L13.9303 5.91332L13.8903 5.95332C13.6803 6.19332 13.5703 6.33332 13.2803 6.33332C13.0003 6.33332 12.8903 6.20332 12.6403 5.91332C12.4003 5.63332 12.1003 5.28332 11.4903 5.28332C10.8703 5.28332 10.5503 5.65332 10.3103 5.92332C10.0703 6.20332 9.96027 6.32332 9.68027 6.32332C9.40027 6.32332 9.29027 6.19332 9.05027 5.92332L9.04027 5.90332C8.80027 5.62332 8.50027 5.27332 7.89027 5.27332C7.28027 5.27332 6.98027 5.62332 6.73027 5.91332C6.49027 6.19332 6.38027 6.31332 6.10027 6.31332C5.82027 6.31332 5.71027 6.18332 5.47027 5.91332L5.46027 5.89332C5.22027 5.61332 4.92027 5.26332 4.29027 5.26332C3.68027 5.26332 3.39027 5.59332 3.14027 5.89332C2.95027 6.11332 2.78027 6.31332 2.50027 6.31332C2.23027 6.31332 2.11027 6.17332 1.92027 5.97332C1.90027 5.94332 1.88027 5.92332 1.85027 5.89332V4.60332C2.04027 4.71332 2.26027 4.77332 2.50027 4.77332C3.10027 4.76332 3.42027 4.39332 3.65027 4.12332ZM3.66027 6.40332C3.88027 6.16332 4.06027 5.96332 4.32027 5.96332C4.59027 5.96332 4.76027 6.15332 4.96027 6.38332C5.22027 6.67332 5.52027 7.01332 6.11027 7.01332C6.71027 7.01332 7.02027 6.68332 7.27027 6.36332C7.49027 6.08332 7.62027 5.96332 7.90027 5.96332C8.18027 5.96332 8.29027 6.08332 8.51027 6.36332C8.76027 6.67332 9.08027 7.01332 9.69027 7.01332C10.3403 7.01332 10.6403 6.64332 10.8503 6.36332C11.0703 6.08332 11.2003 5.96332 11.4803 5.96332C11.7603 5.96332 11.8703 6.09332 12.1103 6.36332C12.3303 6.61332 12.6003 6.92332 13.1003 6.99332C12.2203 8.17332 11.4303 9.92332 10.9103 11.8133C10.4703 13.3433 10.2603 14.9033 10.2703 16.4433C9.21027 16.8533 8.36027 16.8233 7.79027 16.7933C7.68027 16.7933 7.59027 16.7833 7.50027 16.7833C7.47027 16.7833 7.44027 16.7833 7.42027 16.7833C6.67027 16.7833 5.94027 16.6333 5.24027 16.3233C5.24027 14.7733 5.02027 13.2533 4.60027 11.7933C4.07027 9.89332 3.28027 8.16332 2.43027 6.99332C3.05027 7.07332 3.38027 6.70332 3.66027 6.40332ZM10.9903 16.1333C11.0003 14.7433 11.2103 13.3533 11.6003 12.0133C12.1203 10.1333 12.9203 8.39332 13.7603 7.30332C13.7603 7.41332 13.7603 7.52332 13.7603 7.63332L14.3003 11.2233C14.3003 13.4333 12.6603 15.2633 10.9903 16.1333Z" fill="#07513A"/>
</svg>
