<svg width="18" height="21" viewBox="0 0 18 21" fill="none" xmlns="http://www.w3.org/2000/svg">
<path d="M11.09 3.31333V2.77333C11.09 1.52333 10.07 0.503326 8.82 0.503326H2.33C1.08 0.503326 0.0599976 1.52333 0.0599976 2.77333V18.3733C0.0599976 19.6233 1.08 20.6433 2.33 20.6433H8.82C10.07 20.6433 11.09 19.6233 11.09 18.3733V16.2333C14.5 16.0133 17.14 13.2133 17.14 9.77333C17.14 6.34333 14.5 3.53333 11.09 3.31333ZM15.98 11.6533C15.41 13.2533 14.15 14.5133 12.55 15.0833C12.99 14.4733 13.34 13.6533 13.58 12.6733C14.56 12.4433 15.37 12.0933 15.98 11.6533ZM8.48 11.9733C8.35 11.2633 8.28 10.5333 8.28 9.77333C8.28 9.02333 8.35 8.28333 8.48 7.57333C9.88 7.30333 11.46 7.30333 12.87 7.57333C13 8.27333 13.07 9.01333 13.07 9.77333C13.07 10.5233 13 11.2633 12.87 11.9733C11.47 12.2333 9.89 12.2433 8.48 11.9733ZM7.59 7.79333C7.49 8.43333 7.44 9.09333 7.44 9.77333C7.44 10.4533 7.49 11.1233 7.59 11.7533C6.03 11.3033 5.04 10.5333 5.04 9.77333C5.04 9.01333 6.03 8.24333 7.59 7.79333ZM7.77 6.86333C6.79 7.10333 5.97 7.45333 5.37 7.88333C5.94 6.28333 7.2 5.02333 8.8 4.45333C8.35 5.07333 8 5.89333 7.77 6.86333ZM5.36 11.6533C5.97 12.0933 6.79 12.4433 7.77 12.6733C8.01 13.6533 8.36 14.4633 8.79 15.0833C7.19 14.5233 5.93 13.2633 5.36 11.6533ZM13.58 6.86333C13.34 5.88333 12.99 5.07333 12.56 4.46333C14.16 5.03333 15.42 6.29333 15.99 7.89333C15.38 7.45333 14.56 7.10333 13.58 6.86333ZM10.67 6.53333C9.99 6.53333 9.32 6.58333 8.69 6.68333C9.14 5.12333 9.91 4.13333 10.67 4.13333C11.43 4.13333 12.2 5.12333 12.65 6.68333C12.02 6.58333 11.35 6.53333 10.67 6.53333ZM10.26 3.31333C6.85 3.53333 4.2 6.34333 4.2 9.77333C4.2 13.2033 6.85 16.0133 10.25 16.2333V18.3733C10.25 19.1633 9.61 19.8133 8.81 19.8133H2.32C1.53 19.8133 0.879997 19.1733 0.879997 18.3733V2.77333C0.879997 1.98333 1.52 1.33333 2.32 1.33333H8.81C9.6 1.33333 10.25 1.97333 10.25 2.77333V3.31333H10.26ZM12.66 12.8633C12.21 14.4233 11.44 15.4133 10.68 15.4133C9.92 15.4133 9.15 14.4233 8.7 12.8633C9.96 13.0533 11.39 13.0533 12.66 12.8633ZM13.76 11.7533C13.86 11.1133 13.91 10.4533 13.91 9.77333C13.91 9.09333 13.86 8.42333 13.76 7.79333C15.32 8.24333 16.31 9.01333 16.31 9.77333C16.31 10.5333 15.32 11.3033 13.76 11.7533Z" fill="#07513A"/>
<path d="M7.13003 2.35333H4.01003C3.78003 2.35333 3.59003 2.54333 3.59003 2.77333C3.59003 3.00333 3.78003 3.19333 4.01003 3.19333H7.13003C7.36003 3.19333 7.55003 3.00333 7.55003 2.77333C7.55003 2.54333 7.36003 2.35333 7.13003 2.35333Z" fill="#07513A"/>
<path d="M3.25 18.0633C3.25 18.6233 3.71 19.0833 4.27 19.0833H6.89C7.45 19.0833 7.91 18.6233 7.91 18.0633C7.91 17.5033 7.45 17.0433 6.89 17.0433H4.27C3.7 17.0433 3.25 17.5033 3.25 18.0633ZM4.08 18.0633C4.08 17.9633 4.16 17.8833 4.26 17.8833H6.88C6.98 17.8833 7.06 17.9633 7.06 18.0633C7.06 18.1633 6.98 18.2433 6.88 18.2433H4.26C4.16 18.2433 4.08 18.1633 4.08 18.0633Z" fill="#07513A"/>
</svg>
