<svg width="17" height="20" viewBox="0 0 17 20" fill="none" xmlns="http://www.w3.org/2000/svg">
<path d="M10.9802 6.67136H10.1802C9.94021 6.67136 9.78021 6.83136 9.78021 7.07136C9.78021 7.31136 9.94021 7.47136 10.1802 7.47136H10.9802C11.2202 7.47136 11.3802 7.31136 11.3802 7.07136C11.3802 6.83136 11.2202 6.67136 10.9802 6.67136Z" fill="#414042"/>
<path d="M10.9802 10.6814H10.1802C9.94021 10.6814 9.78021 10.8414 9.78021 11.0814C9.78021 11.3214 9.94021 11.4814 10.1802 11.4814H10.9802C11.2202 11.4814 11.3802 11.3214 11.3802 11.0814C11.3802 10.8414 11.2202 10.6814 10.9802 10.6814Z" fill="#414042"/>
<path d="M10.9802 14.6814H10.1802C9.94021 14.6814 9.78021 14.8414 9.78021 15.0814C9.78021 15.3214 9.94021 15.4814 10.1802 15.4814H10.9802C11.2202 15.4814 11.3802 15.3214 11.3802 15.0814C11.3802 14.8414 11.2202 14.6814 10.9802 14.6814Z" fill="#414042"/>
<path d="M14.4302 8.23136C14.4702 8.27136 14.5502 8.27136 14.5902 8.27136C14.7102 8.27136 14.7902 8.23136 14.8702 8.15136L16.8702 6.15136C17.0302 6.03136 17.0302 5.79136 16.9102 5.63136L15.1902 3.31136C15.1102 3.19136 14.9502 3.16136 14.8002 3.18136H14.7902C12.5502 3.46136 11.8202 1.06136 11.7802 0.98136C11.7402 0.82136 11.6202 0.741361 11.4602 0.701361C11.3002 0.661361 11.1402 0.74136 11.0602 0.86136C10.0602 2.34136 8.90022 3.67136 8.54022 3.71136C8.42022 3.71136 7.94022 3.47136 7.26022 2.79136C6.50022 2.03136 6.14022 1.31136 6.14022 1.11136C6.18022 0.87136 6.02022 0.71136 5.82022 0.67136C5.62022 0.63136 5.42022 0.751361 5.38022 0.951361C5.34022 1.07136 4.62022 3.43136 2.33022 3.15136C2.29022 3.15136 2.27022 3.16136 2.24022 3.17136C2.13022 3.19136 2.04022 3.22136 1.98022 3.31136L0.26022 5.63136C0.14022 5.79136 0.14022 5.99136 0.30022 6.15136L2.30022 8.15136C2.38022 8.23136 2.46022 8.27136 2.58022 8.27136C2.62022 8.27136 2.70022 8.27136 2.74022 8.23136L3.16022 8.04136C3.31022 8.90136 3.38022 9.74136 3.26022 10.3514C3.10022 11.2314 2.90022 11.7914 2.70022 12.4314C2.38022 13.3114 2.10022 14.2314 1.90022 16.0014C1.58022 18.8514 1.86022 19.5314 1.94022 19.6914C2.02022 19.8114 2.18022 19.8914 2.30022 19.8914H14.8802C15.0002 19.8914 15.1202 19.8114 15.2002 19.7314C15.2802 19.5714 15.5602 18.8914 15.2402 16.0414C15.0402 14.2814 14.7202 13.3614 14.4402 12.4714C14.2402 11.8714 14.0402 11.2714 13.8802 10.3914C13.7602 9.77136 13.8302 8.91136 14.0002 8.02136L14.4302 8.23136ZM14.5102 7.39136L14.1502 7.23136C14.4102 6.10136 14.7602 5.01136 14.9802 4.36136L16.0702 5.83136L14.5102 7.39136ZM2.65022 7.39136L1.09022 5.83136L2.17022 4.39136C2.40022 5.06136 2.74022 6.13136 2.99022 7.25136L2.65022 7.39136ZM2.65022 16.1314C2.85022 14.4514 3.13022 13.6114 3.41022 12.7214C3.61022 12.0814 3.85022 11.4414 4.01022 10.5214C4.17022 9.68136 4.04022 8.53136 3.81022 7.40136C3.80022 7.37136 3.82022 7.34136 3.81022 7.32136C3.81022 7.31136 3.80022 7.31136 3.79022 7.30136C3.51022 5.98136 3.10022 4.69136 2.85022 3.99136C4.25022 3.91136 5.17022 2.99136 5.70022 2.11136C6.02022 2.67136 6.50022 3.15136 6.66022 3.31136C7.02022 3.67136 7.64022 4.22136 8.21022 4.40136C8.20022 4.43136 8.18022 4.44136 8.18022 4.48136V19.0914H2.61022C2.57022 18.7314 2.53022 17.8914 2.65022 16.1314ZM14.4702 16.1314C14.6702 17.9314 14.5902 18.7714 14.5502 19.1014H8.98022V4.46136C8.98022 4.42136 8.95022 4.39136 8.94022 4.36136C9.71022 4.01136 10.6802 2.79136 11.3002 1.90136C11.7802 2.82136 12.7402 3.90136 14.2702 3.98136C13.8302 5.30136 12.7502 8.67136 13.1102 10.5114C13.3102 11.4714 13.5102 12.1114 13.7102 12.7114C14.0302 13.6014 14.2702 14.4414 14.4702 16.1314Z" fill="#414042"/>
</svg>
