<svg width="24" height="12" viewBox="0 0 24 12" fill="none" xmlns="http://www.w3.org/2000/svg">
<path d="M9.1 4.10329C7.11 4.94329 5.54 6.49329 4.67 8.46329C4.58 8.66329 4.67 8.90329 4.87 8.99329C4.92 9.01329 4.98 9.02329 5.03 9.02329C5.18 9.02329 5.33 8.93329 5.4 8.78329C6.19 6.99329 7.61 5.59329 9.41 4.83329C9.61 4.74329 9.71 4.51329 9.62 4.30329C9.54 4.10329 9.3 4.01329 9.1 4.10329Z" fill="#07513A"/>
<path d="M22.98 11.0333H21.28C21.16 6.22331 17.48 2.29331 12.78 1.78331C12.77 1.21331 12.31 0.763306 11.74 0.763306C11.17 0.763306 10.71 1.22331 10.7 1.78331C5.99998 2.29331 2.31998 6.23331 2.19998 11.0333H0.499976C0.279976 11.0333 0.0999756 11.2133 0.0999756 11.4333C0.0999756 11.6533 0.279976 11.8333 0.499976 11.8333H22.98C23.2 11.8333 23.38 11.6533 23.38 11.4333C23.39 11.2133 23.21 11.0333 22.98 11.0333ZM11.74 1.55331C11.85 1.55331 11.92 1.63331 11.95 1.72331C11.88 1.72331 11.81 1.71331 11.74 1.71331C11.67 1.71331 11.6 1.72331 11.53 1.72331C11.57 1.63331 11.64 1.55331 11.74 1.55331ZM3.00998 11.0333C3.13998 6.32331 6.99998 2.52331 11.75 2.52331C16.49 2.52331 20.36 6.32331 20.49 11.0333H3.00998Z" fill="#07513A"/>
</svg>
