<svg width="141" height="33" viewBox="0 0 141 33" fill="none" xmlns="http://www.w3.org/2000/svg">
<path d="M55.4703 10.8534V29.8719H51.6836V27.8189C51.6836 26.8965 51.1124 25.6619 49.97 24.1079C47.6828 20.9764 45.3456 19.4107 42.9537 19.4107C41.6233 19.4107 40.7212 20.0445 40.2428 21.3123C40.1905 21.4968 40.1619 21.6954 40.1619 21.9059C40.1619 22.6462 40.4166 23.247 40.9235 23.7082C41.4329 24.1694 42.0612 24.4012 42.8109 24.4012C43.3202 24.4012 44.0009 24.2025 44.8577 23.8076L45.9811 27.3341C44.9696 27.8899 43.92 28.1666 42.8323 28.1666H42.0755C41.9422 28.1406 41.6494 28.0886 41.1972 28.0081C39.7073 27.7432 38.5316 27.0573 37.6677 25.9481C36.8037 24.8388 36.3729 23.519 36.3729 21.9864C36.3729 20.1912 36.9679 18.6845 38.1627 17.4688C39.3551 16.2531 40.8402 15.6453 42.6157 15.6453C45.9026 15.6453 48.8062 17.1637 51.3243 20.2006C51.4314 20.3331 51.5504 20.4916 51.6836 20.676V10.8534H34.6593V7.48535H57.6242V10.8534H55.4703Z" fill="white"/>
<path d="M62.6867 11.9625C62.7938 11.9625 62.9128 11.9625 63.0461 11.9625C64.4289 11.9625 65.5975 12.3197 66.5543 13.0316C67.6181 13.7979 68.1489 14.8551 68.1489 16.2009C68.1489 16.9933 67.9085 17.9181 67.4301 18.9753C66.9517 20.0326 66.4067 20.8249 65.795 21.3523C64.2004 22.7005 62.8581 23.5449 61.768 23.8878L59.3356 20.7185C60.6375 20.4015 61.9132 19.6494 63.1627 18.4597C64.041 17.6153 64.4789 16.8348 64.4789 16.1229C64.4789 15.806 64.2123 15.5694 63.6816 15.4086C63.2817 15.2761 62.8843 15.2099 62.4844 15.2099C62.2464 15.2099 61.8799 15.165 61.3872 15.0704C60.8946 14.9781 60.5304 14.9308 60.29 14.9308C59.9973 14.9308 59.6117 15.0633 59.1333 15.3258L57.3388 11.9578C57.9481 11.4824 58.6502 10.7563 59.4451 9.77944C59.7379 9.22362 60.4781 8.7222 61.6728 8.27281C62.7605 7.84944 63.6744 7.63894 64.417 7.63894C67.0945 7.63894 69.2532 8.64414 70.8954 10.6498V7.48047H77.0359V10.8532H74.6844V29.6731H70.8954V16.5983C70.7907 16.0969 70.4647 15.4228 69.922 14.5784C69.3794 13.734 68.9105 13.112 68.513 12.717C67.4277 11.6858 66.1044 11.1725 64.5455 11.1725C63.9148 11.1702 63.2936 11.4351 62.6867 11.9625Z" fill="white"/>
<path d="M80.9867 10.8534V17.6297C83.1311 16.2295 84.2973 15.4773 84.483 15.3709C85.3564 14.8695 86.5369 14.3137 88.0197 13.7058L88.5766 13.4693C89.1335 13.2588 89.769 13.0081 90.483 12.7172L93.4247 16.5204C92.1229 19.7441 91.4707 22.1472 91.4707 23.7319C91.4707 25.2385 91.9087 27.1519 92.7869 29.4769L89.7976 30.8629C88.6813 27.9041 88.122 25.87 88.122 24.7607C88.122 22.5422 88.1887 20.9315 88.322 19.9263C88.3743 19.6093 88.4933 18.9353 88.6813 17.9064C86.5012 18.8572 83.5786 20.8653 79.9086 23.9282L77.2001 21.4329V10.8534H75.6055V7.48535H95.1027V10.8534H80.9867Z" fill="white"/>
<path d="M93.0271 10.8534V7.48535H113.481V10.8534H93.0271ZM110.889 32.6463C107.993 30.5058 104.575 28.8028 100.643 27.5351C98.8891 26.9533 97.3873 26.6623 96.1378 26.6623L94.5836 21.8279C96.6566 22.0644 97.9585 22.185 98.4916 22.185C101.095 22.185 103.342 21.6292 105.23 20.5199C106.531 19.7536 107.184 18.9211 107.184 18.0247C107.184 16.7309 106.572 15.6878 105.349 14.8955C104.656 14.4721 103.728 14.2616 102.557 14.2616C101.041 14.2616 100.005 14.5928 99.446 15.2526C99.208 15.4892 99.1009 15.7162 99.1271 15.9267C99.2057 16.667 100.098 16.9698 101.798 16.8373L99.4056 20.0871C97.2778 20.0871 95.8689 19.1883 95.1786 17.3931C94.993 16.9177 94.9002 16.4565 94.9002 16.0071C94.9002 14.264 95.7641 12.9158 97.492 11.965C98.8748 11.1987 100.508 10.8155 102.397 10.8155C104.151 10.8155 105.746 11.1727 107.181 11.8846C108.776 12.703 109.932 13.8525 110.649 15.3307C111.02 16.071 111.208 16.8492 111.208 17.6675C111.208 19.4107 110.477 20.9835 109.016 22.3837C107.74 23.5734 106.186 24.4438 104.351 24.9996C106.079 25.6595 107.367 26.2413 108.219 26.7428C109.495 27.5351 111.182 28.6846 113.284 30.1912L110.889 32.6463Z" fill="white"/>
<path d="M117.668 10.8534V29.8719H113.881V10.8534H111.13V7.48535H120.181V10.8534H117.668Z" fill="white"/>
<path d="M124.565 10.8532V26.305C124.672 26.305 124.791 26.305 124.922 26.305C128.654 26.305 131.515 25.1437 133.5 22.8187C134.321 21.8939 134.73 21.0898 134.73 20.4015C134.73 18.6063 133.885 17.7075 132.193 17.7075C131.769 17.7075 130.62 18.209 128.742 19.2142L127.276 16.0046C127.888 15.4228 128.871 14.9355 130.227 14.5382C131.503 14.1952 132.5 14.0226 133.216 14.0226C134.147 14.0226 134.892 14.181 135.449 14.498C137.496 15.6829 138.519 17.4355 138.519 19.7558C138.545 19.9143 138.56 20.0585 138.56 20.191C138.56 22.2984 137.629 24.2237 135.768 25.9621C134.173 27.464 132.26 28.5307 130.027 29.1645C128.326 29.6399 125.681 29.8765 122.092 29.8765H120.776V10.8532H118.703V7.48518H133.895V7.44497C133.895 6.20324 133.362 5.18621 132.3 4.39387C131.317 3.67958 130.187 3.3248 128.911 3.3248C127.183 3.3248 124.606 4.2354 121.176 6.05897L119.941 3.20654C123.289 1.14646 126.372 0.115234 129.189 0.115234C131.37 0.115234 133.269 0.803506 134.892 2.17532C136.62 3.60153 137.536 5.37069 137.643 7.48518H140.354V10.8532H124.565Z" fill="white"/>
<path fill-rule="evenodd" clip-rule="evenodd" d="M25.4295 31.6103C27.8333 31.6103 29.8016 29.6543 29.8016 27.2654H29.804V6.70717C29.804 4.31832 27.8357 2.3623 25.4319 2.3623H4.74467C2.34084 2.3623 0.372559 4.31832 0.372559 6.70717V27.2654C0.372559 29.6543 2.34084 31.6103 4.74467 31.6103H25.4295ZM9.86416 10.2431L9.87844 10.6949H8.82409L8.81695 10.2431C8.81695 7.78804 10.6281 5.79182 12.8582 5.79182C15.0859 5.79182 16.8995 7.78804 16.8995 10.2431V10.657H15.8452L15.8523 10.2431C15.8523 8.36042 14.5124 6.83487 12.8582 6.83487C11.2041 6.83487 9.86416 8.36042 9.86416 10.2431ZM18.863 11.2886H6.87476V21.1609C6.87476 22.0597 7.55544 25.2787 11.1207 26.615C11.8228 26.8776 12.8201 26.8776 12.8201 26.8776H17.354C17.3207 26.8515 17.2898 26.8255 17.2636 26.8019C16.9203 26.5143 16.5852 26.4196 16.2838 26.3345L16.2838 26.3345L16.2838 26.3345L16.2837 26.3345C16.186 26.3069 16.0919 26.2803 16.0022 26.2484C15.6356 26.1183 14.7669 25.6808 14.4266 25.1108L14.3956 25.0706C14.0743 24.5833 13.7031 24.1883 13.2556 23.8974C12.8082 23.6065 12.2727 23.1973 12.5011 23.0081C12.7296 22.8189 13.0009 22.6581 13.3937 22.8284C13.7864 22.9986 14.091 23.2233 14.2576 23.3487C14.2853 23.3695 14.3238 23.4013 14.3704 23.4398C14.6044 23.6329 15.0428 23.9948 15.3405 23.9849C15.6975 23.9731 15.826 23.8288 15.5857 23.3179C15.519 23.176 15.3262 22.774 15.0835 22.2678C14.7503 22.36 14.4004 22.4097 14.0363 22.4097C11.8966 22.4097 10.1616 20.6855 10.1616 18.5592C10.1616 16.4329 11.8966 14.7086 14.0363 14.7086C16.1759 14.7086 17.9109 16.4329 17.9109 18.5592C17.9109 19.4485 17.6087 20.2668 17.0994 20.9173C17.1531 20.9436 17.2492 20.9256 17.3716 20.9026C17.6233 20.8554 17.9865 20.7873 18.3227 21.0403C18.5677 21.2239 18.7941 21.2218 19.0086 21.2198C19.2608 21.2175 19.4967 21.2153 19.7269 21.5157C20.1529 22.0715 20.5385 22.6675 20.7503 23.5545C20.7684 23.63 20.7864 23.7076 20.8048 23.7868L20.8049 23.7874C21.0025 24.6381 21.2433 25.675 22.0117 26.3478L22.6948 26.8752H25.3938L18.863 11.2886ZM14.3575 18.3509C14.229 18.1617 13.8744 17.9204 13.5221 18.0931C13.1699 18.2681 13.3246 18.5969 13.465 18.8854C13.465 18.8854 13.7244 19.4294 14.0648 20.1366H14.0386C13.1627 20.1366 12.4511 19.4318 12.4511 18.559C12.4511 17.6886 13.1604 16.9814 14.0386 16.9814C14.9144 16.9814 15.6261 17.6863 15.6261 18.559C15.6261 18.9658 15.4714 19.3372 15.2167 19.6163L15.0974 19.4405C14.7757 18.9663 14.4294 18.456 14.3575 18.3509ZM16.2354 18.5615C16.2354 17.3576 15.2501 16.3784 14.0386 16.3784C12.8272 16.3784 11.8419 17.3576 11.8419 18.5615C11.8419 19.7654 12.8272 20.7446 14.0386 20.7446C14.1433 20.7446 14.2457 20.7375 14.3456 20.7233C14.3299 20.6889 14.3132 20.6546 14.2968 20.621L14.2719 20.5695C14.1957 20.579 14.1172 20.5837 14.0386 20.5837C12.9176 20.5837 12.0061 19.6779 12.0061 18.5639C12.0061 17.4499 12.9176 16.544 14.0386 16.544C15.1596 16.544 16.0712 17.4499 16.0712 18.5639C16.0712 19.122 15.8403 19.6306 15.4714 19.9948L15.4963 20.0321C15.5203 20.068 15.5429 20.102 15.5642 20.132C15.9783 19.7323 16.2354 19.1764 16.2354 18.5615ZM12.749 27.8169C12.9439 27.8215 13.1365 27.8261 13.3246 27.8284C14.1029 27.8426 14.8288 27.8639 15.4523 27.8828C16.6971 27.9277 17.5253 27.9939 17.5253 27.9939C17.5253 27.9939 16.6971 28.0578 15.4523 28.1051C14.8312 28.1288 14.1052 28.1501 13.327 28.1642C13.1318 28.169 12.9319 28.1713 12.732 28.1737C12.5249 28.1737 12.3202 28.1619 12.1108 28.143C11.6943 28.1027 11.273 28.0342 10.8565 27.9064L10.7018 27.8568L10.6637 27.8449L10.6209 27.8284L10.5495 27.7976L10.2639 27.6794C10.0735 27.599 9.87832 27.502 9.69268 27.4074C9.65675 27.3874 9.62082 27.3678 9.58501 27.3482C9.43811 27.2678 9.29303 27.1884 9.15717 27.0952C9.12491 27.0738 9.09265 27.0528 9.06052 27.0318C9.00731 26.9971 8.95445 26.9626 8.90251 26.9272C8.84698 26.8878 8.79356 26.8484 8.74015 26.809C8.71343 26.7893 8.68672 26.7696 8.65974 26.7499C8.50249 26.6356 8.3568 26.5098 8.21356 26.3861L8.20754 26.3809C8.1685 26.3434 8.12928 26.3067 8.09034 26.2703C7.9916 26.1779 7.89475 26.0873 7.80769 25.9906C7.55065 25.7352 7.34359 25.4608 7.15795 25.2078C6.97707 24.9499 6.82712 24.704 6.70812 24.4793C6.58436 24.2546 6.4963 24.0535 6.4249 23.8856C6.35588 23.7177 6.30828 23.5829 6.27734 23.4906C6.2464 23.4007 6.22974 23.3511 6.22974 23.3511C6.22974 23.3511 6.25354 23.3984 6.29876 23.4835C6.3416 23.571 6.41062 23.6964 6.49868 23.8525C6.58674 24.0086 6.70098 24.1954 6.83902 24.4036C6.97706 24.6117 7.14843 24.8341 7.33883 25.0729C7.53875 25.3047 7.75771 25.5507 8.01476 25.7872C8.26704 26.0261 8.55502 26.2555 8.86443 26.4755C9.17145 26.6978 9.51655 26.8894 9.86642 27.0763C10.0449 27.1638 10.221 27.2489 10.4091 27.3293L10.697 27.4452L10.7684 27.4736C10.778 27.4783 10.7994 27.4854 10.7994 27.4854L10.8351 27.4973L10.9755 27.5422C11.3516 27.6628 11.7514 27.7314 12.1465 27.774C12.344 27.7929 12.5439 27.8095 12.7344 27.8166L12.749 27.8169Z" fill="white"/>
</svg>
