<svg width="19" height="19" viewBox="0 0 19 19" fill="none" xmlns="http://www.w3.org/2000/svg">
<path d="M17.7916 8.36452C17.5616 8.36452 17.3316 8.50852 17.3316 8.74852V9.06532C17.3316 9.06532 17.3316 9.06532 17.3316 9.09412L14.7648 11.8925L11.6506 8.67172L11.2458 8.24932L18.0906 1.02052C18.1328 0.970667 18.1638 0.911611 18.1813 0.847665C18.1988 0.783719 18.2024 0.716498 18.1918 0.650916C18.1963 0.614264 18.1963 0.577168 18.1918 0.540516C18.1919 0.424577 18.1487 0.313162 18.0714 0.229848C17.9942 0.146533 17.8889 0.0978562 17.7778 0.0941162H0.813006C0.583006 0.0941162 0.495605 0.310116 0.495605 0.550116V16.2173C0.495605 16.4573 0.583006 16.6205 0.813006 16.6205H4.52521C4.5097 16.7384 4.5097 16.8579 4.52521 16.9757C4.54671 17.1287 4.59877 17.2753 4.67801 17.4059C4.75726 17.5365 4.86191 17.6484 4.98521 17.7341C5.22678 17.9376 5.52587 18.0523 5.83621 18.0605C6.04483 18.0608 6.24973 18.0028 6.42961 17.8925C6.58593 18.0772 6.78339 18.219 7.00461 18.3053C7.23087 18.4077 7.48151 18.4364 7.72367 18.3876C7.96583 18.3388 8.18819 18.2147 8.36161 18.0317C8.4983 18.2056 8.68301 18.3313 8.89061 18.3917C9.00561 18.4271 9.12492 18.4448 9.24481 18.4445C9.56658 18.4371 9.8751 18.3093 10.1142 18.0845C10.2601 18.2602 10.4545 18.3843 10.6708 18.4397C10.7626 18.4637 10.8568 18.4766 10.9514 18.4781C11.2028 18.4487 11.4422 18.3506 11.6457 18.1939C11.8492 18.0372 12.0096 17.8273 12.1106 17.5853L12.5016 16.6253H17.7916C17.8453 16.6273 17.8988 16.6179 17.949 16.5978C17.9992 16.5776 18.0449 16.5472 18.0836 16.5082C18.1222 16.4692 18.1529 16.4226 18.1739 16.3709C18.1948 16.3193 18.2056 16.2638 18.2056 16.2077V8.76772C18.2057 8.71225 18.1949 8.65736 18.1738 8.60646C18.1527 8.55557 18.1217 8.50977 18.0829 8.47192C18.044 8.43408 17.9981 8.40501 17.948 8.38653C17.8979 8.36805 17.8446 8.36055 17.7916 8.36452ZM6.82981 0.929316H10.7858V4.97092L8.94581 4.14052C8.89842 4.11653 8.84666 4.10343 8.79401 4.10212C8.74429 4.10342 8.69552 4.11655 8.65141 4.14052L6.82981 4.97092V0.929316ZM4.93001 15.8093H1.28681V0.929316H6.03861V5.60932C6.0295 5.67812 6.03845 5.74821 6.0645 5.81213C6.09056 5.87605 6.13273 5.93139 6.18654 5.97228C6.24036 6.01316 6.30379 6.03805 6.37008 6.04429C6.43638 6.05053 6.50305 6.03789 6.56301 6.00772L8.81241 4.97092L11.1124 5.98852C11.1616 6.01153 11.2149 6.023 11.2688 6.02212C11.3365 6.02249 11.402 5.99686 11.4528 5.95012C11.5036 5.90764 11.5431 5.85216 11.5672 5.78908C11.5914 5.72599 11.5995 5.65745 11.5908 5.59012V0.929316H16.936L10.3764 7.92292C10.2988 8.0114 10.2558 8.12699 10.2558 8.24692C10.2558 8.36685 10.2988 8.48243 10.3764 8.57092H8.33861C8.25459 8.56526 8.17098 8.58707 8.09941 8.63332L4.36421 11.3693C4.28006 11.4299 4.22065 11.521 4.19767 11.625C4.17469 11.7289 4.18979 11.838 4.24001 11.9309C4.26761 11.9837 4.90701 13.1501 5.98801 12.9965C6.30898 12.9354 6.61919 12.8237 6.90801 12.6653L4.93001 15.8093ZM17.35 15.8093H12.8558L13.6838 13.8125C13.7059 13.7599 13.7179 13.7032 13.719 13.6458C13.7201 13.5883 13.7103 13.5312 13.6903 13.4777C13.6702 13.4242 13.6402 13.3753 13.602 13.334C13.5638 13.2926 13.5181 13.2595 13.4676 13.2365C13.4175 13.2135 13.3635 13.2011 13.3088 13.2C13.2541 13.1989 13.1997 13.2092 13.1488 13.2301C13.0979 13.2511 13.0515 13.2824 13.0122 13.3222C12.973 13.3621 12.9417 13.4096 12.9202 13.4621L11.3424 17.2541C11.3424 17.2541 11.1308 17.6909 10.8502 17.6141C10.791 17.5959 10.738 17.5605 10.6973 17.512C10.6566 17.4636 10.6298 17.4041 10.6202 17.3405L11.4252 15.7565C11.4651 15.6561 11.4677 15.5439 11.4325 15.4416C11.3974 15.3393 11.3269 15.2544 11.2349 15.2034C11.143 15.1524 11.0361 15.1391 10.9352 15.1659C10.8343 15.1927 10.7466 15.2578 10.6892 15.3485L9.76921 17.1869C9.76921 17.1869 9.47481 17.6669 9.10681 17.5757C9.043 17.5511 8.98803 17.5065 8.94934 17.4481C8.91066 17.3897 8.89015 17.3203 8.89061 17.2493L10.036 15.2765C10.0644 15.228 10.0834 15.1741 10.0918 15.1179C10.1002 15.0617 10.098 15.0044 10.0851 14.9491C10.0723 14.8938 10.0492 14.8417 10.0171 14.7958C9.98499 14.7498 9.94452 14.7109 9.89801 14.6813C9.85149 14.6517 9.79984 14.6319 9.746 14.6231C9.69216 14.6143 9.63719 14.6167 9.58423 14.63C9.53126 14.6434 9.48134 14.6675 9.4373 14.701C9.39327 14.7346 9.356 14.7768 9.32761 14.8253L7.94761 17.1965C7.94761 17.1965 7.68541 17.6765 7.29901 17.5181C7.01841 17.3981 6.97701 17.2541 6.98161 17.1677L8.43061 14.6861C8.45913 14.6376 8.47818 14.5837 8.48668 14.5275C8.49518 14.4713 8.49295 14.4139 8.48013 14.3586C8.46731 14.3033 8.44414 14.2512 8.41196 14.2052C8.37978 14.1593 8.33922 14.1204 8.29261 14.0909C8.24658 14.0603 8.19516 14.0396 8.14136 14.03C8.08755 14.0205 8.03246 14.0222 7.97931 14.0352C7.92617 14.0481 7.87605 14.0721 7.83189 14.1056C7.78774 14.139 7.75045 14.1814 7.72221 14.2301L6.00641 17.1101C5.95121 17.1629 5.77181 17.2781 5.44521 17.0285C5.35781 16.9613 5.33941 16.9085 5.33481 16.8701C5.33844 16.7267 5.3869 16.5885 5.47281 16.4765V16.4477L8.62381 11.4845C8.67741 11.3986 8.70033 11.2957 8.68856 11.1939C8.67678 11.0921 8.63106 10.9979 8.55941 10.9277C8.48936 10.8576 8.39772 10.8157 8.30082 10.8095C8.20392 10.8034 8.10808 10.8334 8.03041 10.8941C7.46001 11.3309 6.36521 12.0509 5.85001 12.1277C5.72741 12.1259 5.60668 12.0962 5.49623 12.0407C5.38579 11.9851 5.28831 11.9051 5.21061 11.8061L8.49041 9.40612H11.1906L14.4612 12.8045C14.5007 12.8426 14.5471 12.872 14.5976 12.891C14.6482 12.9099 14.7019 12.9181 14.7556 12.9149C14.8093 12.9181 14.863 12.9099 14.9136 12.891C14.9642 12.872 15.0106 12.8426 15.05 12.8045L17.35 10.3133V15.8093Z" fill="black"/>
</svg>
