<svg width="17" height="20" viewBox="0 0 17 20" fill="none" xmlns="http://www.w3.org/2000/svg">
<path d="M15.0702 8.23332C15.0102 8.23332 14.9502 8.24332 14.8902 8.28332H11.6702V1.42332C11.7002 1.12332 11.6102 0.843316 11.4202 0.633316C11.2102 0.403316 10.9002 0.273315 10.5402 0.273315H1.50025C0.830249 0.273315 0.380249 0.723315 0.380249 1.39332V18.7933C0.380249 19.4633 0.830249 19.9133 1.50025 19.9133H10.5502C10.9002 19.9133 11.2102 19.7833 11.4202 19.5533C11.5902 19.3633 11.6802 19.1233 11.6802 18.8533C11.7102 18.8633 11.7402 18.8633 11.7602 18.8633H15.0702C15.5202 18.8633 16.1902 18.5633 16.1902 17.7433V9.39332C16.1902 8.93332 15.8902 8.23332 15.0702 8.23332ZM11.6702 10.3633V9.13332H15.1802C15.2002 9.13332 15.2102 9.13332 15.2202 9.12332C15.3202 9.18332 15.3402 9.32332 15.3402 9.39332V10.3533H11.6702V10.3633ZM12.1102 16.5833C11.9702 16.5833 11.8402 16.5633 11.7102 16.5433V13.0533C11.8402 13.0233 11.9702 13.0033 12.1102 13.0033C13.1002 13.0033 13.9002 13.8033 13.9002 14.7933C13.9002 15.7733 13.1002 16.5833 12.1102 16.5833ZM14.8502 14.7933C14.8502 13.2833 13.6202 12.0633 12.1202 12.0633C11.9703 12.0633 11.8202 12.0733 11.6702 12.1033V11.2333H15.3402V17.7633C15.3402 17.8233 15.3402 18.0233 15.0702 18.0333H11.7602C11.7302 18.0333 11.7002 18.0333 11.6702 18.0433V17.4933C11.8202 17.5133 11.9703 17.5333 12.1202 17.5333C13.6202 17.5233 14.8502 16.2933 14.8502 14.7933ZM10.8102 17.0533V18.8033C10.8102 18.8133 10.8102 18.8333 10.8102 18.8433C10.8202 18.9133 10.8102 18.9633 10.7802 18.9933C10.7402 19.0433 10.6502 19.0633 10.5402 19.0633H1.50025C1.30025 19.0633 1.23025 18.9933 1.23025 18.7933V7.05332H10.8102V12.5333C10.7802 12.5933 10.7702 12.6533 10.7702 12.7033V16.8733C10.7702 16.9333 10.7802 16.9933 10.8102 17.0533ZM1.23025 6.19332V1.39332C1.23025 1.19332 1.30025 1.12332 1.50025 1.12332H10.5502C10.6602 1.12332 10.7502 1.15332 10.7902 1.20332C10.8202 1.23332 10.8302 1.28332 10.8202 1.36332C10.8202 1.37332 10.8202 1.38332 10.8202 1.40332V6.20332H1.23025V6.19332Z" fill="#07513A"/>
<path d="M2.19025 1.67332C1.95025 1.67332 1.76025 1.86332 1.76025 2.10332V5.23332C1.76025 5.47332 1.95025 5.66332 2.19025 5.66332C2.43025 5.66332 2.62025 5.47332 2.62025 5.23332V2.09332C2.62025 1.86332 2.43025 1.67332 2.19025 1.67332Z" fill="#07513A"/>
<path d="M2.19025 7.58331C1.95025 7.58331 1.76025 7.77331 1.76025 8.01331V11.1433C1.76025 11.3833 1.95025 11.5733 2.19025 11.5733C2.43025 11.5733 2.62025 11.3833 2.62025 11.1433V8.01331C2.62025 7.77331 2.43025 7.58331 2.19025 7.58331Z" fill="#07513A"/>
</svg>
