<svg width="31" height="31" viewBox="0 0 31 31" fill="none" xmlns="http://www.w3.org/2000/svg">
<path d="M30.6504 15.1279C30.6504 23.4092 23.8957 30.1279 15.5702 30.1279C7.23833 30.1279 0.489929 23.4092 0.489929 15.1279C0.489929 6.84043 7.24462 0.12793 15.5702 0.12793C23.8957 0.12793 30.6504 6.84043 30.6504 15.1279Z" fill="#517FA4"/>
<path d="M21.3509 5.75293H9.78942C7.77872 5.75293 6.14502 7.37793 6.14502 9.37793V13.2029V20.8779C6.14502 22.8779 7.77872 24.5029 9.78942 24.5029H21.3509C23.3616 24.5029 24.9953 22.8779 24.9953 20.8779V13.2029V9.37793C24.9953 7.37793 23.3616 5.75293 21.3509 5.75293ZM22.394 7.91543H22.8087V8.32793V11.0904L19.623 11.1029L19.6104 7.92793L22.394 7.91543ZM12.8809 13.2029C13.4841 12.3717 14.4643 11.8279 15.5702 11.8279C16.676 11.8279 17.6563 12.3717 18.2595 13.2029C18.649 13.7467 18.8878 14.4092 18.8878 15.1279C18.8878 16.9467 17.3986 18.4279 15.5702 18.4279C13.7417 18.4279 12.2525 16.9467 12.2525 15.1279C12.2525 14.4092 12.485 13.7467 12.8809 13.2029ZM23.1606 20.8779C23.1606 21.8717 22.35 22.6779 21.3509 22.6779H9.78942C8.79036 22.6779 7.97979 21.8717 7.97979 20.8779V13.2029H10.7948C10.5497 13.7967 10.4178 14.4467 10.4178 15.1279C10.4178 17.9529 12.7301 20.2529 15.5702 20.2529C18.4103 20.2529 20.7226 17.9529 20.7226 15.1279C20.7226 14.4467 20.5843 13.7967 20.3393 13.2029H23.1543V20.8779H23.1606Z" fill="white"/>
</svg>
