<svg width="31" height="31" viewBox="0 0 31 31" fill="none" xmlns="http://www.w3.org/2000/svg">
<path d="M30.2306 15.1279C30.2306 23.4154 23.4759 30.1279 15.1504 30.1279C6.81853 30.1279 0.0701294 23.4154 0.0701294 15.1279C0.0701294 6.84668 6.82482 0.12793 15.1504 0.12793C23.4759 0.12793 30.2306 6.84668 30.2306 15.1279Z" fill="#0173B2"/>
<path d="M9.94144 11.3591H6.03314V23.8591H9.94144V11.3591Z" fill="white"/>
<path d="M7.98726 9.65298C9.23766 9.65298 10.2493 8.64048 10.2493 7.40298C10.2493 6.15923 9.23138 5.14673 7.98726 5.14673C6.73686 5.14673 5.72522 6.15923 5.72522 7.40298C5.72522 8.64048 6.73686 9.65298 7.98726 9.65298Z" fill="white"/>
<path d="M24.5755 17.0029C24.5755 13.6341 23.8466 11.0466 19.8943 11.0466C17.9967 11.0466 16.7212 12.0841 16.1997 13.0654H16.1431V11.3591H12.3982V23.8591H16.3002V17.6716C16.3002 16.0404 16.6081 14.4591 18.6439 14.4591C20.6483 14.4591 20.6735 16.3216 20.6735 17.7716V23.8529H24.5755V17.0029Z" fill="white"/>
</svg>
