<svg width="17" height="22" viewBox="0 0 17 22" fill="none" xmlns="http://www.w3.org/2000/svg">
<path d="M8.1171 1.48926C4.24898 1.48926 1.11328 4.50007 1.11328 8.20843C1.11328 11.0484 5.2408 17.2409 7.17868 19.9955C7.64407 20.6574 8.67404 20.6503 9.13181 19.9955C11.0468 17.2409 15.1133 11.0555 15.1133 8.21555C15.1133 4.50719 11.9776 1.49638 8.10947 1.49638L8.1171 1.48926ZM8.01028 10.2085C6.33181 10.2085 4.97377 8.94156 4.97377 7.37565C4.97377 5.80974 6.33181 4.54278 8.01028 4.54278C9.68876 4.54278 11.0544 5.80974 11.0544 7.37565C11.0544 8.94156 9.68876 10.2085 8.01028 10.2085Z" stroke="white" stroke-width="1.8" stroke-miterlimit="10"/>
</svg>
