<svg width="25" height="25" viewBox="0 0 25 25" fill="none" xmlns="http://www.w3.org/2000/svg">
<path d="M12.557 4.71033C11.8647 4.70938 11.1877 4.9138 10.6116 5.29772C10.0356 5.68164 9.5863 6.2278 9.32072 6.86712C9.05514 7.50643 8.98516 8.21015 9.11963 8.88924C9.25411 9.56834 9.58699 10.1923 10.0762 10.6821C10.5654 11.172 11.1888 11.5057 11.8678 11.6411C12.5467 11.7765 13.2505 11.7075 13.8902 11.4428C14.5298 11.1781 15.0766 10.7296 15.4613 10.1541C15.846 9.57854 16.0514 8.90181 16.0514 8.20953C16.0501 7.2827 15.6817 6.39413 15.0268 5.73832C14.3719 5.0825 13.4838 4.71287 12.557 4.71033ZM15.1538 8.20953C15.1538 8.72313 15.0015 9.22519 14.7161 9.65224C14.4308 10.0793 14.0252 10.4121 13.5507 10.6087C13.0762 10.8052 12.5541 10.8566 12.0504 10.7564C11.5466 10.6562 11.0839 10.4089 10.7208 10.0457C10.3576 9.68258 10.1103 9.21987 10.0101 8.71614C9.90988 8.21241 9.9613 7.69028 10.1578 7.21578C10.3544 6.74127 10.6872 6.33571 11.1143 6.05037C11.5413 5.76503 12.0434 5.61273 12.557 5.61273C13.2457 5.61273 13.9062 5.88632 14.3932 6.37332C14.8802 6.86031 15.1538 7.52082 15.1538 8.20953Z" fill="black"/>
<path d="M18.3842 5.11833V5.07993C17.87 4.12218 17.1229 3.30929 16.2119 2.71622C15.3009 2.12314 14.2553 1.76896 13.1714 1.68633C12.7721 1.65273 12.3706 1.65273 11.9714 1.68633C10.8822 1.77217 9.83246 2.13177 8.91948 2.73176C8.00649 3.33175 7.25988 4.15267 6.74895 5.11833C6.18596 6.13469 5.88581 7.27559 5.87575 8.43742C5.86569 9.59924 6.14605 10.7452 6.69135 11.7711L12.1586 22.1295C12.1963 22.2028 12.2533 22.2644 12.3236 22.3076C12.3938 22.3507 12.4745 22.3738 12.557 22.3743C12.6395 22.3717 12.7201 22.3478 12.7907 22.3049C12.8613 22.262 12.9197 22.2016 12.9602 22.1295L18.4514 11.7711C18.9939 10.744 19.2719 9.5978 19.2602 8.43622C19.2485 7.27464 18.9474 6.1343 18.3842 5.11833ZM17.669 11.3007L12.557 20.9535L7.47375 11.3535C7.0007 10.4584 6.75824 9.45944 6.7683 8.44703C6.77836 7.43463 7.04061 6.4407 7.53135 5.55513C7.96966 4.7198 8.61249 4.00917 9.39984 3.48959C10.1872 2.97001 11.0934 2.65842 12.0338 2.58393C12.2114 2.58393 12.389 2.58393 12.557 2.58393C12.725 2.58393 12.9074 2.58393 13.085 2.58393C14.0244 2.65745 14.9299 2.96759 15.7172 3.48544C16.5045 4.00329 17.1478 4.712 17.5874 5.54553C18.0723 6.42444 18.3334 7.40922 18.3476 8.41293C18.3618 9.41664 18.1288 10.4084 17.669 11.3007Z" fill="black"/>
</svg>
