<svg width="13" height="19" viewBox="0 0 13 19" fill="none" xmlns="http://www.w3.org/2000/svg">
<path d="M6.85498 8.56792C4.86898 8.56792 3.25498 6.83864 3.25498 4.71078C3.25498 2.58292 4.86898 0.853638 6.85498 0.853638C8.84098 0.853638 10.455 2.58292 10.455 4.71078C10.455 6.83864 8.84098 8.56792 6.85498 8.56792ZM6.85498 2.13935C5.52898 2.13935 4.45498 3.29007 4.45498 4.71078C4.45498 6.13149 5.52898 7.28221 6.85498 7.28221C8.18098 7.28221 9.25498 6.13149 9.25498 4.71078C9.25498 3.29007 8.18098 2.13935 6.85498 2.13935ZM10.455 18.8536H3.25498C1.92898 18.8536 0.85498 17.7029 0.85498 16.2822V15.6394C0.85498 12.0908 3.54298 9.21078 6.85498 9.21078C10.167 9.21078 12.855 12.0908 12.855 15.6394V16.2822C12.855 17.7029 11.781 18.8536 10.455 18.8536ZM6.85498 10.4965C4.20298 10.4965 2.05498 12.7979 2.05498 15.6394V16.2822C2.05498 16.9894 2.59498 17.5679 3.25498 17.5679H10.455C11.115 17.5679 11.655 16.9894 11.655 16.2822V15.6394C11.655 12.7979 9.50698 10.4965 6.85498 10.4965Z" fill="white"/>
</svg>
