<svg width="188" height="44" viewBox="0 0 188 44" fill="none" xmlns="http://www.w3.org/2000/svg">
<path d="M73.6586 14.3553V39.7806H68.5964V37.036C68.5964 35.8029 67.8328 34.1523 66.3055 32.0749C63.2478 27.8885 60.1233 25.7953 56.9256 25.7953C55.147 25.7953 53.9411 26.6427 53.3015 28.3375C53.2315 28.5841 53.1933 28.8497 53.1933 29.1311C53.1933 30.1208 53.5338 30.924 54.2115 31.5405C54.8924 32.1571 55.7324 32.467 56.7347 32.467C57.4156 32.467 58.3256 32.2014 59.471 31.6733L60.9728 36.3878C59.6206 37.1309 58.2174 37.5008 56.7633 37.5008H55.7515C55.5733 37.4661 55.182 37.3965 54.5774 37.289C52.5856 36.9348 51.0138 36.0179 49.8588 34.5349C48.7038 33.052 48.1279 31.2876 48.1279 29.2386C48.1279 26.8387 48.9234 24.8245 50.5206 23.1993C52.1147 21.574 54.1002 20.7614 56.4738 20.7614C60.8678 20.7614 64.7496 22.7914 68.1159 26.8514C68.2591 27.0284 68.4182 27.2403 68.5964 27.4869V14.3553H45.837V9.85266H76.5381V14.3553H73.6586Z" fill="#414042"/>
<path d="M83.3059 15.8383C83.449 15.8383 83.6081 15.8383 83.7863 15.8383C85.6349 15.8383 87.1972 16.3157 88.4763 17.2675C89.8985 18.292 90.6081 19.7054 90.6081 21.5045C90.6081 22.5638 90.2867 23.8001 89.6472 25.2135C89.0076 26.6269 88.279 27.6862 87.4613 28.3913C85.3295 30.1936 83.5349 31.3224 82.0777 31.7809L78.8259 27.5439C80.5663 27.1202 82.2718 26.1147 83.9422 24.5242C85.1163 23.3954 85.7017 22.3519 85.7017 21.4002C85.7017 20.9765 85.3454 20.6603 84.6358 20.4453C84.1013 20.2682 83.5699 20.1797 83.0354 20.1797C82.7172 20.1797 82.2272 20.1196 81.5686 19.9931C80.91 19.8698 80.4232 19.8065 80.1018 19.8065C79.7104 19.8065 79.195 19.9836 78.5554 20.3346L76.1564 15.832C76.9709 15.1964 77.9095 14.2257 78.9723 12.9198C79.3636 12.1767 80.3532 11.5064 81.9504 10.9056C83.4045 10.3396 84.6263 10.0582 85.619 10.0582C89.1985 10.0582 92.0844 11.4021 94.2799 14.0834V9.84637H102.489V14.3553H99.3453V39.515H94.2799V22.0357C94.1399 21.3654 93.7039 20.4642 92.9785 19.3354C92.2531 18.2066 91.6262 17.375 91.0949 16.847C89.644 15.4683 87.8749 14.7822 85.7908 14.7822C84.9477 14.779 84.1172 15.1332 83.3059 15.8383Z" fill="#414042"/>
<path d="M107.771 14.3553V23.4143C110.638 21.5424 112.197 20.5369 112.445 20.3946C113.613 19.7243 115.191 18.9812 117.173 18.1686L117.918 17.8524C118.662 17.571 119.512 17.2358 120.466 16.8469L124.399 21.9313C122.658 26.2411 121.787 29.4537 121.787 31.5722C121.787 33.5863 122.372 36.1444 123.546 39.2526L119.55 41.1055C118.058 37.1499 117.31 34.4306 117.31 32.9476C117.31 29.9817 117.399 27.8284 117.577 26.4846C117.647 26.0609 117.806 25.1597 118.058 23.7843C115.143 25.0554 111.236 27.7399 106.329 31.8346L102.709 28.4987V14.3553H100.577V9.85266H126.642V14.3553H107.771Z" fill="#414042"/>
<path d="M123.867 14.3553V9.85266H151.212V14.3553H123.867ZM147.747 43.4896C143.874 40.628 139.305 38.3514 134.049 36.6566C131.704 35.8788 129.696 35.4898 128.026 35.4898L125.948 29.0268C128.72 29.343 130.46 29.5042 131.173 29.5042C134.654 29.5042 137.657 28.7612 140.18 27.2782C141.921 26.2537 142.793 25.1407 142.793 23.9424C142.793 22.2128 141.975 20.8183 140.339 19.7591C139.414 19.1931 138.173 18.9117 136.607 18.9117C134.58 18.9117 133.196 19.3544 132.449 20.2365C132.13 20.5527 131.987 20.8563 132.022 21.1377C132.127 22.1274 133.32 22.5321 135.592 22.3551L132.395 26.6996C129.55 26.6996 127.666 25.498 126.744 23.0981C126.495 22.4626 126.371 21.846 126.371 21.2452C126.371 18.9148 127.526 17.1125 129.836 15.8414C131.685 14.8169 133.868 14.3047 136.394 14.3047C138.739 14.3047 140.871 14.7822 142.789 15.7339C144.921 16.8279 146.468 18.3647 147.425 20.3409C147.922 21.3306 148.173 22.3709 148.173 23.4649C148.173 25.7953 147.196 27.898 145.243 29.7698C143.537 31.3603 141.459 32.5239 139.006 33.267C141.316 34.1492 143.038 34.927 144.177 35.5973C145.882 36.6566 148.138 38.1933 150.948 40.2075L147.747 43.4896Z" fill="white"/>
<path d="M156.808 14.3553V39.7806H151.746V14.3553H148.068V9.85266H160.168V14.3553H156.808Z" fill="white"/>
<path d="M166.029 14.3553V35.0124C166.173 35.0124 166.332 35.0124 166.507 35.0124C171.496 35.0124 175.32 33.4599 177.974 30.3517C179.072 29.1153 179.619 28.0403 179.619 27.1201C179.619 24.7202 178.489 23.5187 176.227 23.5187C175.661 23.5187 174.124 24.189 171.613 25.5328L169.653 21.242C170.471 20.4642 171.785 19.8128 173.599 19.2816C175.304 18.8231 176.637 18.5923 177.595 18.5923C178.839 18.5923 179.835 18.8042 180.58 19.2279C183.316 20.812 184.684 23.155 184.684 26.2569C184.719 26.4688 184.738 26.6616 184.738 26.8387C184.738 29.656 183.494 32.2299 181.006 34.5539C178.874 36.5617 176.316 37.9878 173.332 38.8352C171.057 39.4707 167.522 39.7869 162.724 39.7869H160.964V14.3553H158.193V9.85267H178.502V9.79891C178.502 8.13888 177.789 6.77924 176.37 5.71999C175.056 4.76507 173.545 4.29078 171.839 4.29078C169.529 4.29078 166.083 5.50813 161.499 7.946L159.847 4.13268C164.324 1.37861 168.444 0 172.212 0C175.126 0 177.665 0.92013 179.835 2.75407C182.145 4.66073 183.37 7.02588 183.513 9.85267H187.137V14.3553H166.029Z" fill="white"/>
<path fill-rule="evenodd" clip-rule="evenodd" d="M33.4979 42.1046C36.7115 42.1046 39.3428 39.4897 39.3428 36.2961H39.346V8.81237C39.346 5.61879 36.7147 3.00385 33.5011 3.00385H5.84495C2.63134 3.00385 0 5.61879 0 8.81237V36.2961C0 39.4897 2.63134 42.1046 5.84495 42.1046H33.4979ZM12.6892 13.5396L12.7083 14.1435H11.2988L11.2892 13.5396C11.2892 10.2574 13.7106 7.58875 16.6919 7.58875C19.6701 7.58875 22.0946 10.2574 22.0946 13.5396V14.0929H20.6851L20.6946 13.5396C20.6946 11.0226 18.9033 8.98317 16.6919 8.98317C14.4806 8.98317 12.6892 11.0226 12.6892 13.5396ZM24.7196 14.9371H8.69287V28.1352C8.69287 29.3367 9.60286 33.6401 14.3692 35.4266C15.3078 35.7776 16.641 35.7776 16.641 35.7776H22.7023C22.6578 35.7428 22.6164 35.708 22.5814 35.6764C22.1225 35.292 21.6744 35.1654 21.2715 35.0516L21.2714 35.0515L21.2713 35.0515L21.2711 35.0515C21.1406 35.0146 21.0149 34.9791 20.895 34.9365C20.405 34.7626 19.2437 34.1777 18.7887 33.4156L18.7473 33.3619C18.3178 32.7105 17.8214 32.1825 17.2233 31.7935C16.6251 31.4046 15.9092 30.8576 16.2146 30.6046C16.5201 30.3517 16.8828 30.1367 17.4078 30.3643C17.9328 30.592 18.3401 30.8924 18.5628 31.06C18.5998 31.0878 18.6513 31.1303 18.7136 31.1817C19.0264 31.44 19.6125 31.9237 20.0105 31.9105C20.4878 31.8947 20.6596 31.7018 20.3382 31.0189C20.2491 30.8291 19.9914 30.2916 19.6669 29.615C19.2214 29.7383 18.7537 29.8047 18.2669 29.8047C15.4065 29.8047 13.0869 27.4996 13.0869 24.657C13.0869 21.8144 15.4065 19.5093 18.2669 19.5093C21.1273 19.5093 23.4468 21.8144 23.4468 24.657C23.4468 25.8459 23.0428 26.9399 22.3618 27.8095C22.4337 27.8447 22.5621 27.8206 22.7259 27.7899C23.0623 27.7268 23.5478 27.6357 23.9973 27.9739C24.3248 28.2195 24.6275 28.2166 24.9142 28.2139C25.2515 28.2108 25.5667 28.2078 25.8745 28.6094C26.4441 29.3525 26.9595 30.1493 27.2427 31.3351C27.2669 31.4363 27.291 31.5403 27.3157 31.6464C27.5798 32.7838 27.9018 34.1699 28.9291 35.0693L29.8422 35.7744H33.4504L24.7196 14.9371ZM18.6961 24.3787C18.5243 24.1258 18.0502 23.8033 17.5793 24.0341C17.1084 24.2681 17.3152 24.7076 17.5029 25.0934C17.5029 25.0934 17.8497 25.8206 18.3047 26.766H18.2697C17.0988 26.766 16.1475 25.8238 16.1475 24.657C16.1475 23.4934 17.0956 22.548 18.2697 22.548C19.4406 22.548 20.392 23.4902 20.392 24.657C20.392 25.2009 20.1852 25.6973 19.8447 26.0704L19.6824 25.8312L19.6797 25.8272L19.6744 25.8194C19.2473 25.19 18.7914 24.518 18.6961 24.3787ZM21.2071 24.6602C21.2071 23.0507 19.8898 21.7417 18.2703 21.7417C16.6508 21.7417 15.3335 23.0507 15.3335 24.6602C15.3335 26.2696 16.6508 27.5787 18.2703 27.5787C18.4103 27.5787 18.5471 27.5692 18.6807 27.5502C18.6597 27.5043 18.6374 27.4584 18.6154 27.4134C18.6041 27.3902 18.5929 27.3673 18.5821 27.3447C18.4803 27.3573 18.3753 27.3637 18.2703 27.3637C16.7717 27.3637 15.553 26.1526 15.553 24.6633C15.553 23.1741 16.7717 21.963 18.2703 21.963C19.7689 21.963 20.9875 23.1741 20.9875 24.6633C20.9875 25.4096 20.6789 26.0894 20.1857 26.5763L20.219 26.6262C20.2511 26.6742 20.2813 26.7196 20.3098 26.7597C20.8634 26.2254 21.2071 25.4823 21.2071 24.6602ZM16.5469 37.0334C16.8072 37.0395 17.0644 37.0456 17.3155 37.0487C18.3559 37.0677 19.3264 37.0961 20.16 37.1214C21.8241 37.1815 22.9313 37.27 22.9313 37.27C22.9313 37.27 21.8241 37.3554 20.16 37.4186C19.3296 37.4503 18.3591 37.4787 17.3187 37.4977C17.0578 37.504 16.7905 37.5072 16.5232 37.5103C16.2464 37.5103 15.9728 37.4945 15.6928 37.4692C15.136 37.4155 14.5728 37.3238 14.016 37.153L13.8092 37.0866L13.7582 37.0708L13.701 37.0487L13.6055 37.0076L13.2237 36.8495C12.9692 36.742 12.7083 36.6124 12.4601 36.4859C12.412 36.4592 12.364 36.4329 12.3161 36.4067C12.1198 36.2992 11.9258 36.1931 11.7442 36.0685C11.7011 36.0399 11.658 36.0118 11.615 35.9838C11.5439 35.9374 11.4732 35.8913 11.4037 35.844C11.3294 35.7913 11.258 35.7385 11.1865 35.6858C11.1509 35.6595 11.1152 35.6332 11.0792 35.6068C10.8689 35.4541 10.6742 35.2859 10.4827 35.1205L10.4746 35.1136C10.4224 35.0635 10.37 35.0144 10.318 34.9657C10.1859 34.8423 10.0565 34.7211 9.94009 34.5919C9.59646 34.2504 9.31964 33.8836 9.07146 33.5452C8.82965 33.2006 8.6292 32.8718 8.47011 32.5714C8.30465 32.271 8.18693 32.0022 8.09147 31.7777C7.9992 31.5532 7.93556 31.373 7.8942 31.2497C7.85284 31.1295 7.83057 31.0631 7.83057 31.0631C7.83057 31.0631 7.86238 31.1264 7.92284 31.2402C7.98011 31.3572 8.07238 31.5248 8.19011 31.7334C8.30783 31.9421 8.46056 32.1919 8.6451 32.4702C8.82965 32.7484 9.05874 33.0457 9.31328 33.365C9.58055 33.6749 9.87328 34.0037 10.2169 34.3199C10.5542 34.6393 10.9392 34.946 11.3528 35.2401C11.7633 35.5373 12.2246 35.7934 12.6923 36.0432C12.931 36.1602 13.1664 36.274 13.4178 36.3815L13.8028 36.5365L13.8982 36.5744C13.911 36.5807 13.9396 36.5902 13.9396 36.5902L13.9873 36.606L14.1751 36.6661C14.6778 36.8274 15.2123 36.9191 15.7405 36.976C16.0046 37.0013 16.2719 37.0234 16.5264 37.0329L16.5469 37.0334Z" fill="white"/>
</svg>
