<?xml version="1.0" standalone="no"?>
<!DOCTYPE svg PUBLIC "-//W3C//DTD SVG 20010904//EN"
 "http://www.w3.org/TR/2001/REC-SVG-20010904/DTD/svg10.dtd">
<svg version="1.0" xmlns="http://www.w3.org/2000/svg"
 width="341.000000pt" height="182.000000pt" viewBox="0 0 341.000000 182.000000"
 preserveAspectRatio="xMidYMid meet">

<g transform="translate(0.000000,182.000000) scale(0.100000,-0.100000)"
fill="#000000" stroke="none">
<path d="M0 1796 c0 -19 8 -27 38 -37 43 -13 117 -46 217 -94 51 -25 71 -31
77 -22 4 7 0 18 -10 25 -25 20 -295 152 -310 152 -7 0 -12 -11 -12 -24z"/>
<path d="M446 1798 c-3 -13 -17 -106 -32 -206 -16 -101 -33 -191 -40 -200 -10
-14 -22 -15 -101 -4 -50 7 -131 12 -182 12 l-91 0 0 -69 c0 -63 2 -69 23 -74
12 -3 38 -11 57 -18 19 -6 64 -23 99 -35 35 -13 68 -21 72 -18 23 14 2 34 -70
67 -44 20 -82 41 -86 46 -3 6 -12 8 -19 5 -8 -3 -17 0 -21 6 -4 7 5 10 27 9
18 -1 90 2 161 6 118 7 127 7 127 -10 0 -18 -19 -141 -45 -295 -22 -125 -21
-130 18 -130 l34 0 31 212 c18 117 36 215 40 219 4 4 95 -1 202 -12 107 -10
257 -22 332 -27 76 -5 141 -11 144 -15 4 -4 1 -99 -6 -212 -7 -113 -11 -207
-9 -209 2 -2 15 -6 29 -8 l25 -3 15 209 c10 145 19 211 27 213 7 3 59 -5 115
-17 57 -12 136 -28 175 -34 40 -7 75 -15 77 -17 8 -8 10 -74 3 -86 -9 -15
-117 -37 -126 -26 -4 4 -14 28 -21 52 -17 52 -26 39 -11 -16 10 -35 9 -39 -16
-58 -22 -18 -24 -24 -14 -43 13 -24 22 -27 36 -13 6 4 41 17 79 27 54 14 71
15 74 5 3 -9 7 -8 16 3 11 15 111 36 169 36 l27 0 0 -149 0 -149 30 -12 c58
-24 60 -17 60 160 l0 160 28 -1 c71 -3 77 -8 83 -89 l5 -75 2 68 c1 48 6 69
16 73 13 5 142 -77 158 -100 4 -6 8 -28 8 -48 0 -21 5 -38 10 -38 6 0 10 15
10 34 0 30 3 33 21 29 17 -5 15 0 -11 28 -17 19 -84 96 -148 172 -64 75 -122
137 -129 137 -7 0 -13 7 -13 16 0 8 -4 12 -10 9 -5 -3 -10 1 -10 10 0 20 -59
95 -76 95 -11 0 -26 48 -18 61 2 3 66 60 142 126 135 117 139 120 163 106 22
-13 35 -11 159 26 l135 40 18 -21 c9 -11 17 -29 17 -39 0 -17 -8 -19 -75 -19
-41 0 -78 0 -81 1 -15 2 -24 -29 -22 -81 1 -54 1 -54 8 -15 4 22 8 32 9 23 0
-10 8 -18 16 -18 8 0 15 -7 15 -16 0 -8 5 -12 10 -9 7 4 9 -5 5 -27 l-5 -33
15 25 c8 14 14 21 15 15 0 -5 9 8 20 29 16 28 18 41 10 51 -8 9 -8 15 0 20 9
6 14 -1 11 -17 0 -5 6 -8 14 -8 9 0 12 -6 9 -15 -7 -17 31 -22 41 -5 7 11 42
9 62 -3 9 -6 9 -15 3 -33 -6 -14 -6 -23 -1 -20 10 7 29 -34 25 -56 -1 -10 3
-18 10 -18 15 0 16 61 1 72 -9 7 18 12 53 11 9 -1 10 3 2 12 -7 9 -7 15 -1 19
5 4 12 2 16 -4 9 -15 -5 -51 -17 -44 -6 4 -8 2 -4 -4 11 -17 -35 -102 -56
-102 -21 0 -24 -16 -5 -23 9 -4 9 -6 -1 -6 -7 -1 -10 -6 -7 -11 4 -6 -22 -60
-56 -120 -35 -60 -66 -105 -70 -99 -8 13 -20 14 -28 1 -4 -6 -15 -6 -29 -1
-19 7 -22 14 -18 39 2 16 0 30 -5 30 -5 0 -9 -10 -9 -22 -1 -63 -24 -83 -69
-58 -17 8 -19 3 -25 -57 -4 -36 -3 -70 1 -74 5 -5 37 -12 72 -15 45 -5 59 -10
47 -16 -24 -14 -9 -28 29 -28 44 0 295 -70 295 -82 0 -22 -490 -445 -525 -454
-27 -7 -57 7 -227 103 -96 54 -111 66 -163 130 -43 53 -103 76 -190 71 -64 -3
-78 -7 -112 -34 -61 -50 -87 -111 -87 -205 l0 -79 -43 0 -42 0 2 178 2 177
-24 3 c-36 5 -45 -12 -52 -98 -3 -44 -8 -83 -12 -86 -3 -3 -57 -2 -119 2
l-113 9 0 100 0 100 -31 3 c-23 2 -33 -2 -38 -15 -4 -9 -14 -87 -22 -172 -8
-85 -17 -157 -19 -159 -2 -2 -30 -1 -62 3 l-58 6 3 79 c5 89 7 87 -88 92 l-45
3 0 70 0 70 -82 3 -81 3 -7 -53 c-11 -83 -15 -87 -98 -90 l-72 -3 -9 -52 c-6
-33 -15 -53 -23 -53 -17 0 -193 30 -215 36 -17 5 -18 -13 -18 -285 l0 -291
1705 0 1705 0 0 250 0 251 -32 -5 c-18 -3 -67 -8 -108 -11 -41 -3 -92 -9 -112
-12 l-38 -6 0 54 c-1 30 -7 72 -15 94 -8 22 -19 96 -26 165 -6 69 -17 152 -25
185 -17 72 -18 98 -10 190 5 52 2 94 -12 160 -17 78 -18 94 -6 117 22 44 17
56 -37 84 -29 14 -70 47 -93 72 -68 76 -107 114 -182 175 l-71 57 -292 0 -292
0 3 -62 c3 -52 0 -61 -15 -64 -9 -1 -15 2 -11 7 3 5 9 7 13 5 3 -3 7 4 7 15 0
10 -4 19 -8 19 -4 0 -8 -7 -8 -16 0 -9 -6 -14 -12 -11 -7 2 -12 9 -11 15 2 6
-4 9 -12 6 -12 -5 -15 3 -15 40 0 34 -4 46 -15 46 -12 0 -15 -13 -15 -59 0
-33 -5 -63 -11 -66 -6 -4 -26 -4 -45 -1 l-34 7 0 59 0 60 -45 0 -45 0 0 -50
c0 -58 1 -57 -100 -32 -62 16 -65 18 -68 50 l-3 32 -80 0 c-54 0 -87 -5 -103
-15 -20 -13 -32 -13 -107 0 -59 10 -149 14 -299 14 -118 -1 -208 -3 -200 -5 8
-3 88 -10 178 -18 89 -7 165 -15 168 -18 3 -3 0 -61 -5 -129 -5 -68 -13 -171
-17 -227 l-6 -104 -42 6 c-61 9 -226 24 -445 41 -107 8 -195 16 -197 18 -2 2
10 95 26 206 17 112 30 210 30 217 0 9 -11 14 -30 14 -23 0 -31 -5 -34 -22z
m1149 -14 c0 -15 -6 -18 -30 -16 -53 6 -64 19 -25 30 44 13 55 10 55 -14z
m-274 -33 c47 -10 94 -23 104 -28 11 -6 50 -16 87 -23 53 -10 69 -17 74 -33 7
-23 -17 -47 -48 -47 -20 0 -90 -31 -99 -43 -3 -5 -9 -8 -13 -8 -20 3 -26 -1
-26 -13 0 -27 21 -28 103 -6 143 38 151 40 211 50 32 5 62 7 66 5 11 -7 2 -93
-12 -118 -8 -17 -7 -17 12 -7 12 6 24 9 27 6 11 -10 -20 -37 -38 -33 -9 3 -28
-8 -44 -24 -16 -18 -38 -30 -56 -31 -16 -1 -37 -2 -46 -2 -10 -1 -20 9 -25 24
-7 24 -7 23 -5 -4 2 -28 -2 -31 -48 -44 -123 -35 -150 -47 -153 -68 -3 -20 -4
-20 -94 -7 -51 7 -94 15 -96 18 -10 10 21 455 32 455 1 0 40 -8 87 -19z m694
-42 c11 -16 1 -19 -13 -3 -7 8 -8 14 -3 14 5 0 13 -5 16 -11z m-368 -50 c-14
-8 -22 -8 -30 0 -8 8 -3 11 19 11 25 -1 27 -2 11 -11z m673 -33 c0 5 7 0 15
-10 8 -11 15 -29 14 -40 0 -14 -2 -16 -6 -7 -3 8 -16 24 -29 36 -26 24 -33 45
-9 25 8 -7 15 -9 15 -4z m550 -116 c0 -5 -4 -10 -9 -10 -6 0 -13 5 -16 10 -3
6 1 10 9 10 9 0 16 -4 16 -10z m-181 -41 c-12 -24 -46 -62 -38 -44 3 6 13 24
24 42 22 36 33 37 14 2z m161 11 c0 -5 -7 -10 -15 -10 -8 0 -15 5 -15 10 0 6
7 10 15 10 8 0 15 -4 15 -10z m-16 -32 c-3 -4 -9 -8 -15 -8 -5 0 -9 4 -9 8 0
5 7 9 15 9 8 0 12 -4 9 -9z m129 -25 c-10 -16 -28 -45 -38 -65 -11 -21 -23
-38 -27 -38 -4 0 5 24 20 53 37 70 42 77 53 77 6 0 2 -12 -8 -27z m-152 -6
c-1 -12 -15 -9 -19 4 -3 6 1 10 8 8 6 -3 11 -8 11 -12z m-157 -22 c-4 -8 -10
-15 -15 -15 -5 0 -9 -7 -9 -15 0 -8 -5 -15 -11 -15 -5 0 -8 -4 -5 -9 3 -4 -1
-17 -9 -27 -8 -10 -15 -14 -15 -8 0 6 3 14 8 18 4 4 7 11 7 14 1 16 36 72 45
72 5 0 7 -7 4 -15z m136 -26 c0 -19 -34 -69 -47 -69 -7 0 -13 5 -13 10 0 6 7
10 15 10 9 0 12 6 9 15 -4 10 0 15 12 16 11 0 14 3 7 6 -18 7 -16 23 2 23 8 0
15 -5 15 -11z m-965 -9 c-3 -5 -12 -10 -18 -10 -7 0 -6 4 3 10 19 12 23 12 15
0z m16 -23 c-10 -9 -11 -8 -5 6 3 10 9 15 12 12 3 -3 0 -11 -7 -18z m-171 -15
c0 -9 23 -33 51 -52 59 -39 50 -48 -30 -31 -89 20 -91 20 -92 49 l-1 27 -11
-27 c-11 -28 -17 -28 -117 -9 l-35 7 55 19 c66 22 162 43 173 38 4 -2 7 -12 7
-21z m203 3 c-3 -9 -8 -14 -10 -11 -3 3 -2 9 2 15 9 16 15 13 8 -4z m1015 -40
c-6 -14 -15 -25 -20 -25 -11 0 -10 7 4 30 18 29 30 25 16 -5z m-149 -4 c9 -6
10 -11 2 -15 -6 -4 -11 -2 -11 4 0 6 -4 8 -10 5 -5 -3 -10 -1 -10 4 0 13 10
14 29 2z m-21 -49 c2 -7 -2 -10 -12 -6 -9 3 -16 11 -16 16 0 13 23 5 28 -10z
m54 -32 c-12 -19 -23 -27 -26 -21 -4 6 -3 11 1 11 5 0 14 15 22 33 7 17 15 27
17 21 3 -7 -4 -26 -14 -44z m-72 5 c0 -8 -4 -15 -9 -15 -13 0 -22 16 -14 24
11 11 23 6 23 -9z m-991 -34 c71 -11 76 -14 68 -34 -3 -9 -29 -16 -69 -21 -34
-3 -72 -7 -83 -9 -15 -1 -21 5 -23 26 -5 40 5 59 25 53 10 -3 47 -10 82 -15z
m981 -2 c0 -11 -27 -12 -34 0 -3 4 -3 11 0 14 8 8 34 -3 34 -14z m-173 -32
c10 -7 9 -15 -4 -37 -15 -27 -17 -27 -44 -12 -26 16 -27 18 -13 44 14 27 31
29 61 5z m148 13 c3 -5 2 -10 -4 -10 -5 0 -13 5 -16 10 -3 6 -2 10 4 10 5 0
13 -4 16 -10z m79 -4 c-3 -8 -12 -17 -20 -20 -11 -4 -12 -2 -1 14 14 23 29 27
21 6z m44 -41 c-6 -14 -15 -25 -20 -25 -9 0 -4 14 15 38 15 19 18 14 5 -13z
m-145 8 c4 -3 -1 -12 -11 -20 -9 -8 -11 -12 -4 -8 6 3 12 1 12 -4 0 -6 -7 -11
-15 -11 -8 0 -15 7 -15 15 0 8 5 15 11 15 5 0 7 5 4 10 -7 11 8 14 18 3z m265
-44 c3 -39 -1 -48 -33 -79 -32 -31 -47 -70 -27 -70 5 0 21 14 35 30 15 17 32
30 37 30 6 0 10 -22 10 -49 0 -52 -20 -85 -47 -79 -23 5 -73 105 -73 147 1 30
2 33 11 18 14 -24 30 -11 23 18 -6 26 32 88 51 82 5 -2 11 -24 13 -48z m-199
12 c-12 -33 -39 -62 -39 -41 0 16 32 70 42 70 4 0 2 -13 -3 -29z m-169 11 c0
-5 -7 -17 -15 -28 -15 -19 -20 -8 -9 20 6 17 24 22 24 8z m80 -44 c0 -13 -23
-5 -28 10 -2 7 2 10 12 6 9 -3 16 -11 16 -16z m131 -5 c-12 -20 -14 -14 -5 12
4 9 9 14 11 11 3 -2 0 -13 -6 -23z m-147 -24 c-8 -14 -24 -10 -24 6 0 9 6 12
15 9 8 -4 12 -10 9 -15z m66 -6 c0 -14 -19 -38 -25 -32 -8 8 5 39 16 39 5 0 9
-3 9 -7z m53 -28 c-9 -19 -20 -35 -25 -35 -4 0 0 16 9 35 9 19 20 35 25 35 4
0 0 -16 -9 -35z m-37 -177 c4 4 2 -1 -5 -11 -12 -15 -12 -17 4 -11 11 4 16 3
12 -2 -3 -5 1 -34 9 -64 8 -30 14 -70 14 -90 0 -33 4 -38 45 -58 28 -13 47
-18 51 -11 3 5 3 38 -1 72 -6 57 -5 60 9 41 8 -11 16 -42 17 -68 3 -49 19 -76
19 -32 0 35 19 33 26 -3 6 -30 20 -40 119 -80 53 -22 53 -23 -10 -27 -22 -1
-55 -5 -72 -9 -29 -6 -33 -5 -33 13 0 11 -6 24 -12 30 -14 11 -169 52 -199 52
-48 0 -32 -55 21 -71 52 -16 59 -36 16 -44 -18 -4 -44 -5 -57 -3 -21 3 -24 9
-27 58 -4 73 -7 80 -37 80 -26 0 -26 0 -24 -72 2 -66 1 -73 -17 -73 -15 0 -20
10 -25 52 -8 64 -38 108 -86 124 l-36 12 34 28 c35 29 55 38 43 17 -4 -7 -3
-8 4 -4 6 4 9 13 6 20 -3 7 1 16 8 19 10 3 13 -3 12 -24 -2 -23 2 -29 18 -29
12 0 17 4 12 12 -21 33 -4 95 22 86 5 -2 9 0 9 3 0 13 28 38 37 33 5 -3 4 -13
-4 -22 -10 -12 -10 -14 0 -8 6 4 12 3 12 -1 0 -5 -6 -15 -12 -22 -10 -11 -10
-13 0 -7 8 5 12 -4 13 -31 2 -64 3 -68 23 -71 14 -3 17 0 13 11 -5 14 -9 144
-5 191 1 17 2 17 13 2 7 -8 16 -12 21 -8z m130 -23 c3 -17 1 -24 -6 -20 -5 3
-10 18 -10 32 0 32 9 25 16 -12z m49 -43 c4 -20 9 -45 12 -54 2 -10 0 -18 -6
-18 -11 0 -31 62 -31 98 0 35 18 16 25 -26z m32 -39 c-4 -17 -4 -17 -12 0 -4
9 -4 25 0 35 8 16 8 16 12 0 3 -10 3 -26 0 -35z m38 28 c3 -5 1 -12 -5 -16 -5
-3 -10 1 -10 9 0 18 6 21 15 7z m-1269 -82 c50 -31 76 -93 72 -176 l-3 -68
-135 4 c-86 2 -138 7 -142 15 -12 18 -8 138 6 176 27 74 124 98 202 49z m1278
-42 c4 -19 3 -26 -4 -22 -5 3 -10 18 -10 32 0 32 5 28 14 -10z m-535 -68 c37
-13 65 -60 57 -95 -6 -22 -11 -24 -70 -24 l-63 0 -6 50 c-3 28 -4 57 0 65 6
18 38 19 82 4z m-487 -65 c41 -27 84 -54 94 -61 15 -10 -1 -12 -88 -12 l-108
-1 0 66 c0 77 -5 76 102 8z m-739 24 c10 -5 17 -20 17 -40 l0 -30 -97 6 c-141
10 -153 13 -153 41 0 13 7 28 15 33 19 10 194 3 218 -10z m1077 -58 c0 -28 -3
-30 -37 -30 l-37 0 29 30 c16 17 32 30 37 30 4 0 8 -13 8 -30z m-1958 -217
l33 -58 3 58 c4 85 26 70 30 -21 3 -69 2 -72 -20 -72 -17 0 -31 13 -53 53
l-30 52 -3 -52 c-2 -38 -7 -53 -18 -53 -11 0 -14 16 -14 75 0 68 2 75 20 75
14 0 30 -18 52 -57z m204 -12 c13 -35 24 -67 24 -72 0 -15 -30 -10 -36 6 -4 9
-19 15 -35 15 -19 0 -29 -5 -29 -15 0 -8 -9 -15 -20 -15 -25 0 -25 7 -2 67 11
26 22 56 25 66 5 12 15 17 28 15 16 -2 27 -19 45 -67z m161 52 c3 -7 -10 -13
-34 -15 -31 -2 -39 -8 -47 -31 -12 -34 1 -61 33 -65 24 -4 30 23 6 32 -26 10
-16 26 15 26 28 0 30 -2 30 -39 0 -55 -44 -69 -94 -30 -34 26 -37 88 -5 120
22 22 89 24 96 2z m139 -53 c13 -36 24 -68 24 -72 0 -14 -28 -8 -34 7 -3 9
-18 15 -36 15 -20 0 -30 -5 -30 -15 0 -8 -9 -15 -19 -15 -19 0 -19 3 6 76 21
63 28 75 45 72 15 -2 27 -21 44 -68z m155 44 c24 -21 25 -80 2 -106 -11 -12
-30 -18 -60 -18 l-43 0 0 76 0 77 41 -6 c22 -3 49 -13 60 -23z m89 -4 c0 -27
3 -30 30 -30 27 0 30 3 30 30 0 20 5 30 15 30 12 0 15 -15 15 -75 0 -60 -3
-75 -15 -75 -10 0 -15 10 -15 30 0 27 -3 30 -30 30 -27 0 -30 -3 -30 -30 0
-20 -5 -30 -15 -30 -8 0 -15 3 -16 8 -8 122 -6 142 12 142 14 0 19 -7 19 -30z
m226 -35 c27 -72 29 -85 9 -85 -8 0 -15 7 -15 15 0 10 -10 15 -30 15 -18 0
-33 -6 -36 -15 -4 -8 -14 -15 -24 -15 -17 0 -17 5 7 76 21 64 28 75 46 72 14
-2 27 -20 43 -63z m148 50 c4 -11 -1 -15 -18 -15 -13 0 -24 -6 -23 -12 2 -68
-4 -108 -18 -108 -12 0 -15 13 -15 60 0 53 -2 60 -20 60 -11 0 -20 7 -20 15 0
11 13 15 54 15 39 0 55 -4 60 -15z m166 -3 c33 -26 21 -70 -20 -79 -23 -4 -30
-11 -30 -29 0 -17 -6 -24 -20 -24 -18 0 -20 7 -20 75 l0 75 34 0 c19 0 44 -8
56 -18z m138 2 c25 -18 28 -37 8 -57 -13 -12 -12 -18 5 -46 18 -29 18 -31 1
-31 -10 0 -27 15 -37 33 l-20 32 -3 -32 c-2 -25 -8 -33 -23 -33 -17 0 -19 7
-19 75 l0 75 33 0 c18 0 43 -7 55 -16z m88 -44 c1 -70 -4 -90 -22 -90 -11 0
-14 17 -14 76 0 66 2 75 18 72 13 -3 17 -14 18 -58z m63 8 c9 -26 19 -49 22
-52 3 -3 11 17 18 45 12 44 33 71 46 57 3 -3 -6 -36 -18 -74 -18 -51 -29 -70
-43 -72 -16 -2 -24 9 -42 60 -25 71 -27 91 -10 86 6 -2 19 -25 27 -50z m141
-23 c0 -60 -3 -75 -15 -75 -12 0 -15 15 -15 75 0 60 3 75 15 75 12 0 15 -15
15 -75z m80 10 l0 -65 30 0 c17 0 30 -4 30 -10 0 -5 -22 -10 -50 -10 l-50 0 0
75 c0 68 2 75 20 75 18 0 20 -7 20 -65z m170 50 c0 -9 -9 -15 -25 -15 -31 0
-34 -27 -3 -32 32 -5 35 -28 4 -28 -19 0 -26 -5 -26 -20 0 -15 7 -20 25 -20
14 0 25 -4 25 -10 0 -5 -20 -10 -45 -10 l-45 0 0 75 0 75 45 0 c33 0 45 -4 45
-15z m147 -2 c3 -7 -7 -11 -28 -11 -48 2 -72 -39 -49 -83 13 -22 50 -26 50 -4
0 8 -7 15 -15 15 -8 0 -15 7 -15 15 0 10 10 15 30 15 28 0 30 -2 30 -40 0 -34
-4 -41 -25 -46 -14 -3 -39 -1 -55 6 -52 21 -60 111 -13 139 23 14 85 10 90 -6z
m133 2 c0 -10 -10 -15 -30 -15 -20 0 -30 -5 -30 -15 0 -9 9 -15 25 -15 16 0
25 -6 25 -15 0 -9 -10 -15 -26 -15 -36 0 -29 -34 9 -38 44 -5 31 -22 -18 -22
l-45 0 0 75 0 75 45 0 c33 0 45 -4 45 -15z m188 -2 c2 -9 -7 -13 -25 -13 -36
0 -53 -16 -53 -49 0 -39 14 -53 45 -49 36 4 45 -19 12 -27 -25 -7 -66 8 -79
29 -14 21 -8 89 9 108 19 21 84 22 91 1z m128 -52 c28 -75 29 -81 9 -81 -8 0
-15 7 -15 15 0 10 -11 15 -35 15 -24 0 -35 -5 -35 -15 0 -8 -9 -15 -19 -15
-19 0 -19 3 6 76 21 63 28 75 45 72 15 -2 27 -21 44 -67z m135 59 c21 -12 25
-50 8 -67 -9 -9 -8 -18 5 -37 20 -31 20 -36 1 -36 -8 0 -22 14 -30 30 -18 34
-35 31 -35 -6 0 -15 -6 -24 -15 -24 -12 0 -15 15 -15 75 l0 75 31 0 c17 0 39
-5 50 -10z m153 -11 c19 -15 26 -29 26 -56 0 -51 -23 -73 -77 -73 l-43 0 0 75
0 75 34 0 c19 0 45 -9 60 -21z"/>
<path d="M457 234 c-13 -13 -7 -44 8 -44 16 0 17 5 6 33 -3 10 -10 15 -14 11z"/>
<path d="M756 225 c-10 -26 -7 -35 9 -35 17 0 19 18 6 38 -7 11 -10 10 -15 -3z"/>
<path d="M890 200 c0 -54 14 -65 44 -34 31 30 14 84 -26 84 -15 0 -18 -9 -18
-50z"/>
<path d="M1226 225 c-10 -26 -7 -35 9 -35 17 0 19 18 6 38 -7 11 -10 10 -15
-3z"/>
<path d="M1540 230 c0 -15 5 -20 18 -18 9 2 17 10 17 18 0 8 -8 16 -17 18 -13
2 -18 -3 -18 -18z"/>
<path d="M1680 229 c0 -24 23 -21 28 4 2 10 -3 17 -12 17 -10 0 -16 -9 -16
-21z"/>
<path d="M2816 225 c-10 -26 -7 -35 9 -35 17 0 19 18 6 38 -7 11 -10 10 -15
-3z"/>
<path d="M2950 229 c0 -14 5 -19 17 -17 26 5 29 38 4 38 -15 0 -21 -6 -21 -21z"/>
<path d="M3090 200 c0 -54 14 -65 44 -34 31 30 14 84 -26 84 -15 0 -18 -9 -18
-50z"/>
<path d="M2025 1810 c3 -5 8 -10 11 -10 2 0 4 5 4 10 0 6 -5 10 -11 10 -5 0
-7 -4 -4 -10z"/>
<path d="M2208 1613 c7 -3 16 -2 19 1 4 3 -2 6 -13 5 -11 0 -14 -3 -6 -6z"/>
<path d="M2220 1590 c-13 -8 -12 -10 3 -10 9 0 17 5 17 10 0 12 -1 12 -20 0z"/>
<path d="M0 1556 c0 -18 12 -27 73 -50 39 -16 96 -39 124 -52 79 -36 106 -41
101 -19 -1 10 -10 21 -18 26 -96 49 -195 92 -252 109 -25 8 -28 6 -28 -14z"/>
<path d="M2405 1570 c-4 -6 -11 -7 -17 -4 -7 4 -8 2 -4 -5 4 -6 12 -9 17 -6 5
4 9 -8 9 -24 0 -21 5 -31 15 -31 18 0 20 16 3 23 -8 4 -7 6 3 6 24 1 22 51 -2
51 -10 0 -21 -5 -24 -10z"/>
<path d="M2230 1560 c-13 -8 -12 -10 3 -10 9 0 17 5 17 10 0 12 -1 12 -20 0z"/>
<path d="M2230 1533 c0 -3 7 -11 15 -19 13 -14 15 -13 15 4 0 10 -7 19 -15 19
-8 0 -15 -2 -15 -4z"/>
<path d="M2340 1478 c0 -62 9 -58 16 6 3 29 1 46 -5 46 -7 0 -11 -22 -11 -52z"/>
<path d="M2240 1480 c0 -5 5 -10 10 -10 6 0 10 5 10 10 0 6 -4 10 -10 10 -5 0
-10 -4 -10 -10z"/>
<path d="M2409 1475 c-5 -21 -2 -45 6 -44 6 1 9 6 7 12 -2 5 2 13 8 17 8 5 7
9 -4 13 -9 4 -16 4 -17 2z"/>
<path d="M1942 1454 c-7 -8 -8 -14 -3 -14 10 0 25 19 20 25 -2 1 -10 -3 -17
-11z"/>
<path d="M2180 1455 c0 -8 4 -15 10 -15 5 0 7 7 4 15 -4 8 -8 15 -10 15 -2 0
-4 -7 -4 -15z"/>
<path d="M2251 1444 c0 -11 3 -14 6 -6 3 7 2 16 -1 19 -3 4 -6 -2 -5 -13z"/>
<path d="M2530 1450 c0 -5 7 -10 15 -10 8 0 15 5 15 10 0 6 -7 10 -15 10 -8 0
-15 -4 -15 -10z"/>
<path d="M1960 1430 c-9 -6 -10 -10 -3 -10 6 0 15 5 18 10 8 12 4 12 -15 0z"/>
<path d="M1891 1403 c7 -12 15 -20 18 -17 3 2 -3 12 -13 22 -17 16 -18 16 -5
-5z"/>
<path d="M1980 1399 c0 -5 5 -7 10 -4 6 3 10 8 10 11 0 2 -4 4 -10 4 -5 0 -10
-5 -10 -11z"/>
<path d="M2400 1406 c0 -2 7 -6 15 -10 8 -3 15 -1 15 4 0 6 -7 10 -15 10 -8 0
-15 -2 -15 -4z"/>
<path d="M2242 1370 c0 -19 2 -27 5 -17 2 9 2 25 0 35 -3 9 -5 1 -5 -18z"/>
<path d="M2400 1380 c0 -5 7 -10 16 -10 8 0 12 5 9 10 -3 6 -10 10 -16 10 -5
0 -9 -4 -9 -10z"/>
<path d="M2005 1370 c-3 -5 -2 -10 4 -10 5 0 13 5 16 10 3 6 2 10 -4 10 -5 0
-13 -4 -16 -10z"/>
<path d="M2208 1355 c2 -14 8 -25 12 -25 4 0 5 11 2 25 -2 14 -8 25 -12 25 -4
0 -5 -11 -2 -25z"/>
<path d="M2330 1355 c0 -8 2 -15 4 -15 2 0 6 7 10 15 3 8 1 15 -4 15 -6 0 -10
-7 -10 -15z"/>
<path d="M2025 1351 c-6 -11 9 -23 19 -14 9 9 7 23 -3 23 -6 0 -12 -4 -16 -9z"/>
<path d="M2057 1333 c-4 -3 -7 -11 -7 -17 0 -6 5 -5 12 2 6 6 9 14 7 17 -3 3
-9 2 -12 -2z"/>
<path d="M2400 1330 c0 -5 5 -10 10 -10 6 0 10 5 10 10 0 6 -4 10 -10 10 -5 0
-10 -4 -10 -10z"/>
<path d="M1970 1310 c6 -11 13 -20 16 -20 2 0 0 9 -6 20 -6 11 -13 20 -16 20
-2 0 0 -9 6 -20z"/>
<path d="M2065 1300 c-3 -5 1 -10 9 -10 9 0 16 5 16 10 0 6 -4 10 -9 10 -6 0
-13 -4 -16 -10z"/>
<path d="M2106 1271 c-4 -7 -5 -15 -2 -18 9 -9 19 4 14 18 -4 11 -6 11 -12 0z"/>
<path d="M2390 1270 c0 -5 7 -10 15 -10 8 0 15 5 15 10 0 6 -7 10 -15 10 -8 0
-15 -4 -15 -10z"/>
<path d="M2025 1240 c21 -24 26 -25 19 -6 -3 8 -13 17 -22 21 -13 5 -13 2 3
-15z"/>
<path d="M2395 1240 c4 -6 11 -8 16 -5 14 9 11 15 -7 15 -8 0 -12 -5 -9 -10z"/>
<path d="M2140 1214 c0 -8 5 -12 10 -9 6 3 10 10 10 16 0 5 -4 9 -10 9 -5 0
-10 -7 -10 -16z"/>
<path d="M2388 1193 c6 -2 18 -2 25 0 6 3 1 5 -13 5 -14 0 -19 -2 -12 -5z"/>
<path d="M2135 1120 c10 -11 20 -20 23 -20 3 0 -3 9 -13 20 -10 11 -20 20 -23
20 -3 0 3 -9 13 -20z"/>
<path d="M103 1023 c17 -5 25 -33 8 -33 -5 0 -22 7 -37 15 -16 8 -39 15 -52
15 -20 0 -23 -4 -20 -27 2 -20 9 -29 26 -31 13 -2 26 -10 29 -18 3 -9 13 -12
25 -8 11 3 40 -2 64 -11 72 -27 99 -1 47 46 -43 38 -77 59 -93 58 -11 -1 -10
-3 3 -6z"/>
<path d="M1582 865 c0 -16 2 -22 5 -12 2 9 2 23 0 30 -3 6 -5 -1 -5 -18z"/>
<path d="M2497 875 c3 -8 9 -12 14 -9 12 7 11 11 -5 17 -10 4 -13 1 -9 -8z"/>
<path d="M1581 814 c0 -11 3 -14 6 -6 3 7 2 16 -1 19 -3 4 -6 -2 -5 -13z"/>
<path d="M2280 714 c-8 -12 -26 -25 -40 -29 l-25 -8 30 -13 c44 -19 66 -18 58
4 -3 9 -3 14 2 10 9 -8 45 9 45 21 0 5 -11 6 -24 4 -18 -4 -25 0 -28 14 -3 17
-4 17 -18 -3z"/>
<path d="M1897 623 c-12 -12 -7 -22 8 -17 8 4 15 10 15 15 0 11 -14 12 -23 2z"/>
<path d="M1960 610 c11 -9 12 -13 3 -17 -18 -7 -16 -20 3 -27 9 -3 27 3 41 14
14 11 24 21 22 21 -2 1 -13 3 -24 4 -11 2 -29 6 -40 10 -17 6 -17 5 -5 -5z"/>
</g>
</svg>
