<svg width="18" height="10" viewBox="0 0 18 10" fill="none" xmlns="http://www.w3.org/2000/svg">
<path d="M9.20581 1.09045C5.88284 1.09045 2.96511 2.60042 1.29552 4.88921C1.19826 5.01636 1.21447 5.17531 1.29552 5.30246C2.9489 7.59125 5.88284 9.10121 9.20581 9.10121C12.5288 9.10121 15.4465 7.59125 17.1161 5.30246C17.1972 5.1912 17.2134 5.01636 17.1161 4.88921C15.4465 2.60042 12.5288 1.09045 9.20581 1.09045ZM9.20581 1.7898C12.2046 1.7898 14.8305 3.10904 16.3705 5.09583C14.8305 7.06673 12.2046 8.40186 9.20581 8.40186C6.20703 8.40186 3.58107 7.06673 2.04116 5.09583C3.58107 3.10904 6.20703 1.7898 9.20581 1.7898ZM9.20581 2.48916C7.74694 2.48916 6.54743 3.66534 6.54743 5.09583C6.54743 6.52633 7.74694 7.70251 9.20581 7.70251C10.6647 7.70251 11.8642 6.52633 11.8642 5.09583C11.8642 3.66534 10.6647 2.48916 9.20581 2.48916ZM9.20581 3.17262C10.2919 3.17262 11.151 4.03091 11.151 5.07994C11.151 6.14486 10.2919 6.98726 9.20581 6.98726C8.11977 6.98726 7.26066 6.14486 7.26066 5.07994C7.26066 4.01502 8.11977 3.17262 9.20581 3.17262Z" stroke="#8A8A8A" stroke-width="0.8" stroke-miterlimit="10"/>
</svg>
