<svg width="16" height="18" viewBox="0 0 16 18" fill="none" xmlns="http://www.w3.org/2000/svg">
<path d="M12.6404 10.2007V16.0744H1.35386V2.80729H11.3725H11.4225V2.75729V1.82471V1.77471H11.3725H1.09299C0.662049 1.77471 0.30498 2.12441 0.30498 2.55005V16.3316C0.30498 16.7573 0.662049 17.107 1.09299 17.107H12.9012C13.3322 17.107 13.6892 16.7573 13.6892 16.3316V10.7016V10.6581L13.6462 10.652C13.2884 10.6018 12.9655 10.4345 12.7277 10.1675L12.6404 10.0694V10.2007Z" fill="white" stroke="white" stroke-width="0.1"/>
<path d="M13.3032 9.68155L13.3033 9.68166C13.4523 9.84642 13.6762 9.95718 13.9027 9.95718C14.1104 9.95718 14.316 9.8647 14.4649 9.71832L14.5001 9.68378L14.5001 9.68385L14.5022 9.68155L15.4335 8.64534L15.4337 8.64516C15.5639 8.49884 15.6396 8.31458 15.6396 8.12835V1.39301V1.34301H15.6205C15.609 1.15735 15.5329 0.973909 15.3765 0.837248C15.2125 0.69402 15.0256 0.600391 14.8164 0.600391H12.9714C12.7668 0.600391 12.5596 0.673524 12.4082 0.840271C12.2598 0.98655 12.1658 1.18848 12.1658 1.39301V8.12835C12.1658 8.31216 12.2399 8.51496 12.3729 8.64647L13.3032 9.68155ZM14.5732 1.63298V2.34467H13.1971V1.63298H14.5732ZM14.5732 3.35999V6.62766H13.1971V3.35999H14.5732ZM14.5732 8.03994L13.8855 8.79621L13.1971 8.02297V7.66025H14.5732V8.03994Z" fill="white" stroke="white" stroke-width="0.1"/>
<path d="M3.95719 12.2543H3.62333C3.28025 12.2543 3.01104 12.5177 3.01104 12.857C3.01104 13.1963 3.28025 13.4596 3.62333 13.4596H3.95719C4.30028 13.4596 4.56949 13.1963 4.56949 12.857C4.56949 12.5177 4.30028 12.2543 3.95719 12.2543Z" fill="white" stroke="white" stroke-width="0.1"/>
<path d="M3.95719 8.42205H3.62333C3.28025 8.42205 3.01104 8.6854 3.01104 9.02469C3.01104 9.36398 3.28025 9.62733 3.62333 9.62733H3.95719C4.30028 9.62733 4.56949 9.36398 4.56949 9.02469C4.56949 8.70368 4.3013 8.42205 3.95719 8.42205Z" fill="white" stroke="white" stroke-width="0.1"/>
<path d="M10.9831 12.857H10.9832L10.983 12.8541C10.964 12.5176 10.6968 12.2543 10.3532 12.2543H6.01298C5.66989 12.2543 5.40068 12.5177 5.40068 12.857C5.40068 13.1963 5.66989 13.4596 6.01298 13.4596H10.3708C10.7139 13.4596 10.9831 13.1963 10.9831 12.857Z" fill="white" stroke="white" stroke-width="0.1"/>
<path d="M10.9831 9.02469H10.9832L10.983 9.0217C10.9639 8.70367 10.6979 8.42205 10.3532 8.42205H6.01298C5.66989 8.42205 5.40068 8.6854 5.40068 9.02469C5.40068 9.36398 5.66989 9.62733 6.01298 9.62733H10.3708C10.7139 9.62733 10.9831 9.36398 10.9831 9.02469Z" fill="white" stroke="white" stroke-width="0.1"/>
<path d="M3.95719 5.60698H3.62333C3.28025 5.60698 3.01104 5.87034 3.01104 6.20963C3.01104 6.54892 3.28025 6.81227 3.62333 6.81227H3.95719C4.30028 6.81227 4.56949 6.54892 4.56949 6.20963C4.56949 5.87034 4.30028 5.60698 3.95719 5.60698Z" fill="white" stroke="white" stroke-width="0.1"/>
<path d="M10.3532 5.60698H6.01298C5.66989 5.60698 5.40068 5.87034 5.40068 6.20963C5.40068 6.54892 5.66989 6.81227 6.01298 6.81227H10.3708C10.7139 6.81227 10.9831 6.54892 10.9831 6.20963C10.9831 5.86837 10.6942 5.60698 10.3532 5.60698Z" fill="white" stroke="white" stroke-width="0.1"/>
</svg>
