<svg width="25" height="19" viewBox="0 0 25 19" fill="none" xmlns="http://www.w3.org/2000/svg">
<path d="M24.4763 8.37206C24.4763 6.20695 23.5846 4.13051 21.9973 2.59955C20.41 1.06858 18.2571 0.208496 16.0123 0.208496C13.7675 0.208496 11.6147 1.06858 10.0274 2.59955C8.44008 4.13051 7.54834 6.20695 7.54834 8.37206C7.56101 8.48943 7.61832 8.5981 7.7092 8.67711C7.80008 8.75611 7.91809 8.79983 8.04043 8.79983C8.16278 8.79983 8.28079 8.75611 8.37167 8.67711C8.46255 8.5981 8.51986 8.48943 8.53252 8.37206C8.53598 6.9814 8.95608 5.62134 9.74227 4.4556C10.5285 3.28986 11.6472 2.36812 12.9639 1.80135C14.2805 1.23458 15.739 1.04693 17.1636 1.26099C18.5883 1.47505 19.9185 2.08169 20.994 3.0079C22.0695 3.9341 22.8446 5.14038 23.2258 6.48154C23.6071 7.8227 23.5784 9.24156 23.1431 10.5673C22.7078 11.8931 21.8845 13.0693 20.7723 13.9543C19.6601 14.8393 18.3064 15.3953 16.8742 15.5556L18.0233 13.7802C18.0765 13.7005 18.1036 13.6072 18.1011 13.5124C18.0986 13.4176 18.0666 13.3258 18.0092 13.2488C17.9518 13.1719 17.8716 13.1134 17.7793 13.0809C17.6869 13.0485 17.5865 13.0436 17.4913 13.067C17.4277 13.08 17.3676 13.1054 17.3146 13.1416C17.2615 13.1778 17.2167 13.224 17.1827 13.2774L15.5069 15.8788C15.4719 15.9315 15.4482 15.9905 15.4372 16.0522C15.4262 16.1139 15.4282 16.1771 15.4431 16.238C15.4727 16.3609 15.551 16.4677 15.6612 16.5356L18.3584 18.1365C18.4337 18.1855 18.523 18.2106 18.6138 18.2084C18.6976 18.2093 18.7802 18.1896 18.8538 18.1509C18.9274 18.1123 18.9894 18.0561 19.034 17.9877C19.1002 17.8796 19.1229 17.7518 19.0979 17.6285C19.0663 17.5064 18.986 17.4013 18.8745 17.3361L17.3689 16.4227C19.3472 16.1036 21.145 15.1209 22.4453 13.648C23.7457 12.175 24.465 10.3066 24.4763 8.37206Z" fill="black"/>
<path d="M15.869 14.3959C15.869 14.2693 15.8169 14.148 15.7241 14.0585C15.6313 13.969 15.5055 13.9187 15.3742 13.9187H6.91025C6.84132 13.9118 6.77166 13.9189 6.70578 13.9396C6.63989 13.9603 6.57925 13.9941 6.52778 14.0389C6.4763 14.0836 6.43515 14.1383 6.40698 14.1993C6.37881 14.2604 6.36426 14.3265 6.36426 14.3933C6.36426 14.4602 6.37881 14.5263 6.40698 14.5873C6.43515 14.6484 6.4763 14.7031 6.52778 14.7478C6.57925 14.7925 6.63989 14.8264 6.70578 14.8471C6.77166 14.8678 6.84132 14.8749 6.91025 14.868H15.3742C15.5045 14.868 15.6296 14.8184 15.7222 14.73C15.8148 14.6416 15.8676 14.5216 15.869 14.3959Z" fill="black"/>
<path d="M5.12786 13.9187H4.55331C4.48439 13.9118 4.41473 13.9189 4.34884 13.9396C4.28296 13.9603 4.22232 13.9941 4.17084 14.0389C4.11937 14.0836 4.07822 14.1383 4.05005 14.1993C4.02188 14.2604 4.00732 14.3265 4.00732 14.3933C4.00732 14.4602 4.02188 14.5263 4.05005 14.5873C4.07822 14.6484 4.11937 14.7031 4.17084 14.7478C4.22232 14.7925 4.28296 14.8264 4.34884 14.8471C4.41473 14.8678 4.48439 14.8749 4.55331 14.868H5.12786C5.24955 14.8557 5.36223 14.8005 5.44414 14.7128C5.52605 14.6252 5.57138 14.5113 5.57138 14.3933C5.57138 14.2753 5.52605 14.1615 5.44414 14.0739C5.36223 13.9862 5.24955 13.9309 5.12786 13.9187Z" fill="black"/>
<path d="M9.93731 12.2871C9.93732 12.1614 9.88592 12.0408 9.79429 11.9514C9.70265 11.8621 9.57817 11.8112 9.44788 11.8099H3.27677C3.15508 11.8221 3.0424 11.8774 2.96049 11.965C2.87858 12.0527 2.83325 12.1665 2.83325 12.2845C2.83325 12.4025 2.87858 12.5163 2.96049 12.604C3.0424 12.6916 3.15508 12.7469 3.27677 12.7591H9.44788C9.51215 12.7591 9.57579 12.7469 9.63518 12.7232C9.69456 12.6995 9.74851 12.6647 9.79396 12.6209C9.83941 12.577 9.87546 12.525 9.90005 12.4677C9.92465 12.4104 9.93731 12.3491 9.93731 12.2871Z" fill="black"/>
<path d="M1.49463 11.7739H0.920081C0.798392 11.7861 0.685714 11.8414 0.603804 11.9291C0.521894 12.0167 0.476562 12.1305 0.476562 12.2486C0.476563 12.3666 0.521894 12.4804 0.603804 12.568C0.685714 12.6557 0.798392 12.711 0.920081 12.7232H1.49463C1.61632 12.711 1.729 12.6557 1.81091 12.568C1.89282 12.4804 1.93815 12.3666 1.93815 12.2486C1.93815 12.1305 1.89282 12.0167 1.81091 11.9291C1.729 11.8414 1.61632 11.7861 1.49463 11.7739Z" fill="black"/>
<path d="M6.91025 10.6092H11.9854C12.0544 10.6161 12.124 10.609 12.1899 10.5883C12.2558 10.5676 12.3164 10.5338 12.3679 10.4891C12.4194 10.4443 12.4605 10.3896 12.4887 10.3286C12.5169 10.2675 12.5314 10.2014 12.5314 10.1346C12.5314 10.0678 12.5169 10.0017 12.4887 9.94062C12.4605 9.87955 12.4194 9.82488 12.3679 9.78014C12.3164 9.73539 12.2558 9.70157 12.1899 9.68087C12.124 9.66017 12.0544 9.65305 11.9854 9.65998H6.91025C6.84132 9.65305 6.77166 9.66017 6.70578 9.68087C6.63989 9.70157 6.57925 9.73539 6.52778 9.78014C6.4763 9.82488 6.43515 9.87955 6.40698 9.94062C6.37881 10.0017 6.36426 10.0678 6.36426 10.1346C6.36426 10.2014 6.37881 10.2675 6.40698 10.3286C6.43515 10.3896 6.4763 10.4443 6.52778 10.4891C6.57925 10.5338 6.63989 10.5676 6.70578 10.5883C6.77166 10.609 6.84132 10.6161 6.91025 10.6092Z" fill="black"/>
<path d="M4.55331 10.6092H5.12786C5.24955 10.597 5.36223 10.5417 5.44414 10.4541C5.52605 10.3664 5.57138 10.2526 5.57138 10.1346C5.57138 10.0166 5.52605 9.90278 5.44414 9.81512C5.36223 9.72747 5.24955 9.6722 5.12786 9.65998H4.55331C4.48439 9.65305 4.41473 9.66017 4.34884 9.68087C4.28296 9.70157 4.22232 9.73539 4.17084 9.78014C4.11937 9.82488 4.07822 9.87955 4.05005 9.94062C4.02188 10.0017 4.00732 10.0678 4.00732 10.1346C4.00732 10.2014 4.02188 10.2675 4.05005 10.3286C4.07822 10.3896 4.11937 10.4443 4.17084 10.4891C4.22232 10.5338 4.28296 10.5676 4.34884 10.5883C4.41473 10.609 4.48439 10.6161 4.55331 10.6092Z" fill="black"/>
<path d="M14.161 9.07505C14.0307 9.07641 13.9063 9.12728 13.8146 9.21662C13.723 9.30597 13.6716 9.42657 13.6716 9.55225V10.2347C13.6725 10.6921 13.8558 11.1317 14.1837 11.4622C14.5115 11.7928 14.9587 11.9889 15.4325 12.01V12.2871C15.4253 12.3536 15.4327 12.4208 15.4542 12.4843C15.4756 12.5479 15.5107 12.6064 15.5571 12.656C15.6035 12.7057 15.6602 12.7453 15.7235 12.7725C15.7868 12.7997 15.8553 12.8137 15.9246 12.8137C15.9939 12.8137 16.0624 12.7997 16.1257 12.7725C16.189 12.7453 16.2457 12.7057 16.2921 12.656C16.3385 12.6064 16.3735 12.5479 16.395 12.4843C16.4165 12.4208 16.4239 12.3536 16.4167 12.2871V12.0254C16.8009 12.0065 17.1693 11.8722 17.4705 11.6414C17.7718 11.4106 17.9907 11.0949 18.0968 10.7382C18.2029 10.3815 18.1908 10.0018 18.0622 9.65213C17.9336 9.30243 17.6949 9.00022 17.3796 8.78771L16.4167 8.1412V5.67827C16.574 5.7374 16.7091 5.84113 16.804 5.97578C16.899 6.11043 16.9494 6.26969 16.9487 6.43254V7.08932C16.9415 7.1558 16.9489 7.22298 16.9703 7.28653C16.9918 7.35008 17.0269 7.40857 17.0733 7.45822C17.1196 7.50786 17.1763 7.54755 17.2396 7.57472C17.303 7.60189 17.3715 7.61593 17.4408 7.61593C17.5101 7.61593 17.5786 7.60189 17.6419 7.57472C17.7052 7.54755 17.7619 7.50786 17.8083 7.45822C17.8547 7.40857 17.8897 7.35008 17.9112 7.28653C17.9326 7.22298 17.94 7.1558 17.9329 7.08932V6.41715C17.9309 6.00063 17.7775 5.59796 17.4995 5.27921C17.2216 4.96046 16.8365 4.7458 16.4114 4.67258V4.47247C16.4185 4.40599 16.4112 4.33881 16.3897 4.27526C16.3682 4.21171 16.3332 4.15322 16.2868 4.10358C16.2404 4.05393 16.1837 4.01424 16.1204 3.98707C16.0571 3.9599 15.9886 3.94586 15.9193 3.94586C15.85 3.94586 15.7815 3.9599 15.7181 3.98707C15.6548 4.01424 15.5981 4.05393 15.5518 4.10358C15.5054 4.15322 15.4703 4.21171 15.4488 4.27526C15.4274 4.33881 15.42 4.40599 15.4272 4.47247V4.63666C14.9529 4.65903 14.5057 4.85629 14.178 5.18767C13.8503 5.51904 13.6671 5.9592 13.6663 6.41715V6.50951C13.6649 6.7971 13.7364 7.08067 13.8745 7.33553C14.0127 7.5904 14.2133 7.80885 14.4589 7.97187L15.4272 8.62352V11.0608C15.2155 11.0392 15.0196 10.9429 14.8772 10.7904C14.7348 10.6379 14.6559 10.4399 14.6558 10.2347V9.55225C14.6558 9.42569 14.6037 9.30431 14.5109 9.21482C14.4181 9.12533 14.2922 9.07505 14.161 9.07505ZM14.6558 6.41715C14.6625 6.21555 14.745 6.02319 14.8879 5.87592C15.0308 5.72865 15.2244 5.63652 15.4325 5.6167V7.49468L15.0229 7.22273C14.9091 7.14478 14.8164 7.04167 14.7526 6.92203C14.6887 6.80239 14.6555 6.66973 14.6558 6.53517V6.41715ZM16.4167 11.0608V9.2803L16.821 9.55225C16.9359 9.6282 17.0299 9.73006 17.0948 9.84898C17.1597 9.9679 17.1935 10.1003 17.1934 10.2347C17.1919 10.4404 17.1119 10.6384 16.9686 10.7908C16.8253 10.9432 16.6288 11.0393 16.4167 11.0608Z" fill="black"/>
</svg>
