<svg width="12" height="20" viewBox="0 0 12 20" fill="none" xmlns="http://www.w3.org/2000/svg">
<path d="M11.5705 3.91332L9.46048 1.08332C9.38048 0.97332 9.24048 0.90332 9.10048 0.90332C8.96048 0.90332 8.83048 0.97332 8.74048 1.08332L6.64048 3.91332C6.58048 3.99332 6.55048 4.08332 6.55048 4.17332V16.4733C6.55048 17.8833 7.69048 19.0233 9.10048 19.0233C10.5105 19.0233 11.6505 17.8833 11.6505 16.4733V4.17332C11.6505 4.08332 11.6205 3.99332 11.5705 3.91332ZM7.45048 4.32332L9.10048 2.09332L10.7605 4.32332V4.61332C10.4205 4.67332 9.95048 4.68332 9.70048 4.52332C9.61048 4.47332 9.55048 4.38332 9.53048 4.27332C9.49048 4.06332 9.31048 3.92332 9.10048 3.92332C8.89048 3.92332 8.71048 4.07332 8.67048 4.27332C8.65048 4.37332 8.59048 4.46332 8.51048 4.52332C8.26048 4.68332 7.79048 4.66332 7.45048 4.61332V4.32332ZM10.7505 5.51332V15.2533H9.54048V5.42332C9.79048 5.50332 10.0505 5.54332 10.3105 5.54332C10.4605 5.54332 10.6105 5.53332 10.7505 5.51332ZM8.66048 5.42332V15.2433H7.45048V5.50332C7.85048 5.57332 8.26048 5.54332 8.66048 5.42332ZM10.7705 16.4833C10.7705 16.9233 10.5905 17.3433 10.2805 17.6533C9.97048 17.9633 9.54048 18.1433 9.10048 18.1333V18.1433C8.66048 18.1433 8.24048 17.9633 7.93048 17.6533C7.62048 17.3433 7.45048 16.9133 7.45048 16.4733V16.1333H10.7705V16.4833Z" fill="#07513A"/>
<path d="M3.76049 0.90332H1.46049C0.730493 0.90332 0.130493 1.49332 0.130493 2.23332V17.7033C0.130493 18.4333 0.720493 19.0333 1.46049 19.0333H3.76049C4.49049 19.0333 5.09049 18.4433 5.09049 17.7033V2.22332C5.09049 1.49332 4.50049 0.90332 3.76049 0.90332ZM4.21049 17.6933C4.21049 17.8133 4.16049 17.9233 4.08049 18.0033C4.00049 18.0833 3.88049 18.1333 3.77049 18.1333H1.47049C1.23049 18.1333 1.03049 17.9333 1.03049 17.6933V17.0433H2.45049C2.70049 17.0433 2.89049 16.8433 2.89049 16.6033C2.89049 16.3633 2.69049 16.1633 2.45049 16.1633H1.03049V14.8333H2.45049C2.70049 14.8333 2.89049 14.6333 2.89049 14.3933C2.89049 14.1533 2.69049 13.9533 2.45049 13.9533H1.03049V12.6233H2.45049C2.70049 12.6233 2.89049 12.4233 2.89049 12.1833C2.89049 11.9333 2.69049 11.7433 2.45049 11.7433H1.03049V10.4133H2.45049C2.70049 10.4133 2.89049 10.2133 2.89049 9.97332C2.89049 9.72332 2.69049 9.53332 2.45049 9.53332H1.03049V8.20332H2.45049C2.70049 8.20332 2.89049 8.00332 2.89049 7.76332C2.89049 7.52332 2.69049 7.32332 2.45049 7.32332H1.03049V5.97332H2.45049C2.70049 5.97332 2.89049 5.77332 2.89049 5.53332C2.89049 5.29332 2.69049 5.09332 2.45049 5.09332H1.03049V3.76332H2.45049C2.70049 3.76332 2.89049 3.56332 2.89049 3.32332C2.89049 3.08332 2.69049 2.88332 2.45049 2.88332H1.03049V2.22332C1.03049 1.97332 1.23049 1.78332 1.47049 1.78332H3.77049C3.89049 1.78332 4.00049 1.83332 4.08049 1.91332C4.16049 1.99332 4.21049 2.11332 4.21049 2.22332V17.6933Z" fill="#07513A"/>
</svg>
