<svg width="13" height="15" viewBox="0 0 13 15" fill="none" xmlns="http://www.w3.org/2000/svg">
<path d="M6.08926 0.147461C4.47429 0.147461 2.92546 0.770675 1.7835 1.88C0.641546 2.98933 0 4.4939 0 6.06273C0 10.0555 5.36616 14.5659 5.59451 14.7582C5.73238 14.8727 5.90784 14.9357 6.08926 14.9357C6.27069 14.9357 6.44614 14.8727 6.58401 14.7582C6.85042 14.5659 12.1785 10.0555 12.1785 6.06273C12.1785 4.4939 11.537 2.98933 10.395 1.88C9.25306 0.770675 7.70423 0.147461 6.08926 0.147461ZM6.08926 13.198C4.468 11.7192 1.52232 8.53235 1.52232 6.06273C1.52232 4.88611 2.00347 3.75768 2.85994 2.92568C3.71641 2.09369 4.87803 1.62628 6.08926 1.62628C7.30049 1.62628 8.46211 2.09369 9.31858 2.92568C10.175 3.75768 10.6562 4.88611 10.6562 6.06273C10.6562 8.53235 7.71053 11.7266 6.08926 13.198ZM6.08926 3.10509C5.48709 3.10509 4.89844 3.27855 4.39776 3.60354C3.89707 3.92853 3.50683 4.39045 3.27639 4.93089C3.04595 5.47132 2.98565 6.06601 3.10313 6.63973C3.22061 7.21345 3.51058 7.74045 3.93638 8.15409C4.36218 8.56772 4.90468 8.84941 5.49528 8.96353C6.08588 9.07765 6.69806 9.01908 7.25439 8.79522C7.81073 8.57137 8.28623 8.19228 8.62078 7.7059C8.95533 7.21952 9.13389 6.64769 9.13389 6.06273C9.13389 5.27831 8.81312 4.52603 8.24214 3.97136C7.67116 3.4167 6.89675 3.10509 6.08926 3.10509ZM6.08926 7.54154C5.78818 7.54154 5.49385 7.45481 5.24351 7.29232C4.99317 7.12982 4.79805 6.89886 4.68283 6.62864C4.56761 6.35843 4.53746 6.06108 4.5962 5.77422C4.65494 5.48736 4.79992 5.22386 5.01282 5.01704C5.22572 4.81023 5.49697 4.66938 5.79227 4.61232C6.08757 4.55526 6.39366 4.58455 6.67183 4.69648C6.94999 4.8084 7.18775 4.99795 7.35502 5.24114C7.52229 5.48433 7.61158 5.77024 7.61158 6.06273C7.61158 6.45493 7.45119 6.83107 7.1657 7.10841C6.88021 7.38574 6.49301 7.54154 6.08926 7.54154Z" fill="#414042"/>
</svg>
