<svg width="18" height="21" viewBox="0 0 18 21" fill="none" xmlns="http://www.w3.org/2000/svg">
<path d="M14.9402 12.2253H10.9302V10.3553C10.9302 8.21531 9.63025 6.29531 7.65025 5.49531C8.06025 5.03531 8.03025 4.32531 7.57025 3.90531C7.36025 3.71531 7.10025 3.61531 6.82025 3.61531V2.49531H9.44025C9.65025 2.49531 9.81025 2.32531 9.81025 2.12531V0.62531C9.81025 0.41531 9.64025 0.25531 9.44025 0.25531H4.20025C3.99025 0.25531 3.83025 0.42531 3.83025 0.62531V2.12531C3.83025 2.33531 4.00025 2.49531 4.20025 2.49531H4.57025V3.61531C3.95025 3.61531 3.45025 4.11531 3.45025 4.73531C3.45025 5.01531 3.55025 5.28531 3.74025 5.48531C2.97025 5.79531 2.28025 6.28531 1.73025 6.91531C0.900246 7.88531 0.440247 9.09531 0.440247 10.3553V20.0853C0.440247 20.2953 0.610246 20.4553 0.810246 20.4553H14.9302C16.3802 20.4553 17.5502 19.2853 17.5502 17.8353V14.8453C17.5502 13.3953 16.3802 12.2253 14.9402 12.2253ZM8.30025 0.99531H9.05025V1.74531H8.30025V0.99531ZM4.56025 0.99531H7.55025V1.74531H4.56025V0.99531ZM6.06025 2.49531V3.61531H5.31025V2.49531H6.06025ZM4.30025 4.47531C4.37025 4.40531 4.47025 4.36531 4.57025 4.36531H6.82025C7.03025 4.36531 7.19025 4.53531 7.19025 4.73531C7.19025 4.94531 7.02025 5.10531 6.82025 5.10531H4.57025C4.36025 5.10531 4.20025 4.93531 4.20025 4.72531C4.19025 4.64531 4.23025 4.54531 4.30025 4.47531ZM1.19025 10.3553C1.19025 8.14531 2.80025 6.25531 4.99025 5.91531C5.45025 5.84531 5.91025 5.84531 6.37025 5.91531C8.56025 6.25531 10.1702 8.13531 10.1702 10.3553V12.2253H9.80025C8.35025 12.2253 7.18025 13.3953 7.18025 14.8453V15.2153H1.19025V10.3553ZM1.19025 15.9653H7.18025V17.8353H1.19025V15.9653ZM1.19025 19.7153V18.5953H7.29025C7.42025 19.0253 7.65025 19.4053 7.96025 19.7153H1.19025ZM16.8102 17.8353C16.8102 18.8653 15.9702 19.7053 14.9402 19.7053H9.80025C8.77025 19.7053 7.93025 18.8653 7.93025 17.8353V14.8453C7.93025 13.8153 8.77025 12.9753 9.80025 12.9753H14.9402C15.9702 12.9753 16.8102 13.8153 16.8102 14.8453V17.8353Z" fill="#07513A"/>
</svg>
