<svg width="32" height="31" viewBox="0 0 32 31" fill="none" xmlns="http://www.w3.org/2000/svg">
<path d="M31.0239 15.1279C31.0239 23.4092 24.2692 30.1279 15.9436 30.1279C7.61809 30.1279 0.863403 23.4092 0.863403 15.1279C0.863403 6.84043 7.61809 0.12793 15.9436 0.12793C24.2692 0.12793 31.0239 6.84043 31.0239 15.1279Z" fill="#2DAAE1"/>
<path d="M24.8473 7.79053C24.0995 8.23428 23.2701 8.55303 22.3904 8.72803C21.6867 7.97803 20.6813 7.50928 19.5692 7.50928C17.4328 7.50928 15.6986 9.23428 15.6986 11.3593C15.6986 11.6593 15.7363 11.953 15.7991 12.2343C12.582 12.0718 9.73561 10.5405 7.82545 8.21553C7.49243 8.78428 7.30392 9.44678 7.30392 10.1468C7.30392 11.478 7.98882 12.6593 9.02559 13.3468C8.39096 13.328 7.79403 13.153 7.27251 12.8655V12.9155C7.27251 14.778 8.6046 16.3343 10.3765 16.6905C10.0498 16.778 9.71048 16.828 9.35861 16.828C9.10727 16.828 8.8685 16.803 8.62973 16.7593C9.12612 18.2843 10.5525 19.3968 12.2427 19.428C10.9169 20.4593 9.25179 21.0718 7.44216 21.0718C7.12799 21.0718 6.8201 21.053 6.51849 21.0155C8.22759 22.1093 10.2634 22.7405 12.4501 22.7405C19.5629 22.7405 23.4523 16.878 23.4523 11.7968C23.4523 11.628 23.4523 11.4655 23.4398 11.2968C24.1938 10.753 24.8535 10.078 25.3688 9.30928C24.6776 9.61553 23.9299 9.82178 23.1507 9.91553C23.9424 9.44053 24.5582 8.69053 24.8473 7.79053Z" fill="white"/>
</svg>
