<svg width="20" height="22" viewBox="0 0 20 22" fill="none" xmlns="http://www.w3.org/2000/svg">
<path d="M19.3408 2.31623C19.254 2.23411 19.1372 2.18809 19.0156 2.18809C18.894 2.18809 18.7772 2.23411 18.6905 2.31623L16.4673 4.47152C13.6696 4.21425 11.018 2.88418 9.80306 1.07354C9.73899 0.975724 9.63763 0.90601 9.52076 0.879366C9.40137 0.854395 9.27656 0.875296 9.17293 0.937617C9.11782 0.972828 9.07136 1.01922 9.03682 1.07354C7.68078 3.11718 4.55028 4.53948 1.41474 4.53948C1.29307 4.53948 1.17639 4.58602 1.09036 4.66886C1.00433 4.7517 0.956002 4.86406 0.956002 4.98122V12.3014C0.993821 14.1991 1.70545 16.027 2.97243 17.4809L0.598086 19.743C0.526626 19.8279 0.490337 19.9352 0.496224 20.0443C0.502112 20.1533 0.549759 20.2564 0.629967 20.3337C0.710174 20.4109 0.817254 20.4568 0.930532 20.4625C1.04381 20.4681 1.15525 20.4332 1.24334 20.3644L3.54207 18.1508C5.1027 19.7686 7.0937 20.9438 9.29896 21.5488C9.37151 21.5683 9.44821 21.5683 9.52076 21.5488C12.8882 20.7382 17.8738 17.2431 17.8738 12.3257V4.95695C17.8734 4.87914 17.8511 4.80289 17.8094 4.73624C17.7677 4.6696 17.7081 4.61503 17.6369 4.57832L19.3408 2.94728C19.4276 2.86355 19.4763 2.75007 19.4763 2.63176C19.4763 2.51344 19.4276 2.39996 19.3408 2.31623ZM1.84827 12.3014V5.37441C4.87291 5.25306 7.81184 3.94241 9.40986 2.02497C10.7659 3.67542 13.11 4.88899 15.6406 5.25791L3.59248 16.8547C2.48745 15.5737 1.87183 13.9666 1.84827 12.3014ZM16.9715 5.37441V12.3014C16.9715 17.0878 11.7993 20.0391 9.40986 20.6605C7.42517 20.0486 5.63253 18.9651 4.1974 17.5101L16.8001 5.37441H16.9715Z" fill="black"/>
</svg>
