<svg width="31" height="31" viewBox="0 0 31 31" fill="none" xmlns="http://www.w3.org/2000/svg">
<path d="M30.4374 15.1279C30.4374 23.4092 23.6827 30.1279 15.3572 30.1279C7.02532 30.1279 0.276917 23.4092 0.276917 15.1279C0.276917 6.84043 7.0316 0.12793 15.3572 0.12793C23.689 0.12793 30.4374 6.84043 30.4374 15.1279Z" fill="#FE3432"/>
<path d="M24.5938 11.3779C24.5938 11.3779 24.4116 10.0842 23.8461 9.51543C23.1298 8.77168 22.3255 8.76543 21.961 8.72168C19.322 8.53418 15.3634 8.53418 15.3634 8.53418H15.3572C15.3572 8.53418 11.3986 8.53418 8.75955 8.72168C8.38883 8.76543 7.59084 8.77168 6.86824 9.51543C6.30273 10.0842 6.12051 11.3779 6.12051 11.3779C6.12051 11.3779 5.93201 12.8967 5.93201 14.4154V15.8404C5.93201 17.3592 6.12051 18.8779 6.12051 18.8779C6.12051 18.8779 6.30273 20.1717 6.86824 20.7404C7.58455 21.4904 8.52707 21.4654 8.94806 21.5404C10.4561 21.6842 15.3572 21.7279 15.3572 21.7279C15.3572 21.7279 19.3157 21.7217 21.9548 21.5342C22.3192 21.4904 23.1235 21.4842 23.8398 20.7404C24.4053 20.1717 24.5875 18.8779 24.5875 18.8779C24.5875 18.8779 24.776 17.3592 24.776 15.8404V14.4154C24.7823 12.8967 24.5938 11.3779 24.5938 11.3779ZM13.4156 17.5592V12.2904L18.5114 14.9342L13.4156 17.5592Z" fill="white"/>
</svg>
